<mxfile host="65bd71144e">
    <diagram name="Page-1" id="2YBvvXClWsGukQMizWep">
        <mxGraphModel dx="17310" dy="7790" grid="1" gridSize="10" guides="1" tooltips="1" connect="1" arrows="1" fold="1" page="1" pageScale="1" pageWidth="850" pageHeight="1100" math="0" shadow="0">
            <root>
                <mxCell id="0"/>
                <mxCell id="1" parent="0"/>
                <mxCell id="908" value="" style="rounded=0;whiteSpace=wrap;html=1;" vertex="1" parent="1">
                    <mxGeometry x="4060" y="2240" width="3550" height="1080" as="geometry"/>
                </mxCell>
                <mxCell id="758" value="" style="rounded=0;whiteSpace=wrap;html=1;" parent="1" vertex="1">
                    <mxGeometry x="4080" y="490" width="3660" height="1410" as="geometry"/>
                </mxCell>
                <mxCell id="755" value="" style="rounded=0;whiteSpace=wrap;html=1;" parent="1" vertex="1">
                    <mxGeometry x="-155" y="2240" width="3880" height="2290" as="geometry"/>
                </mxCell>
                <mxCell id="752" value="" style="rounded=0;whiteSpace=wrap;html=1;" parent="1" vertex="1">
                    <mxGeometry x="-120" y="490" width="2730" height="1570" as="geometry"/>
                </mxCell>
                <mxCell id="750" value="" style="rounded=0;whiteSpace=wrap;html=1;" parent="1" vertex="1">
                    <mxGeometry x="4060" y="3500" width="2370" height="1030" as="geometry"/>
                </mxCell>
                <mxCell id="2" value="Actor" style="shape=umlActor;verticalLabelPosition=bottom;verticalAlign=top;html=1;" parent="1" vertex="1">
                    <mxGeometry x="4340" y="3740" width="30" height="60" as="geometry"/>
                </mxCell>
                <mxCell id="8" value="ClickEventController" style="shape=umlLifeline;perimeter=lifelinePerimeter;whiteSpace=wrap;html=1;container=1;dropTarget=0;collapsible=0;recursiveResize=0;outlineConnect=0;portConstraint=eastwest;newEdgeStyle={&quot;curved&quot;:0,&quot;rounded&quot;:0};" parent="1" vertex="1">
                    <mxGeometry x="4650" y="3750" width="155" height="220" as="geometry"/>
                </mxCell>
                <mxCell id="10" value="Interactable" style="shape=umlLifeline;perimeter=lifelinePerimeter;whiteSpace=wrap;html=1;container=1;dropTarget=0;collapsible=0;recursiveResize=0;outlineConnect=0;portConstraint=eastwest;newEdgeStyle={&quot;curved&quot;:0,&quot;rounded&quot;:0};" parent="1" vertex="1">
                    <mxGeometry x="5100" y="3750" width="155" height="220" as="geometry"/>
                </mxCell>
                <mxCell id="11" value="" style="endArrow=none;dashed=1;html=1;" parent="1" edge="1">
                    <mxGeometry width="50" height="50" relative="1" as="geometry">
                        <mxPoint x="4355" y="3970" as="sourcePoint"/>
                        <mxPoint x="4354.5" y="3818.67" as="targetPoint"/>
                    </mxGeometry>
                </mxCell>
                <mxCell id="13" value="clicks on the screen" style="endArrow=classic;html=1;" parent="1" edge="1">
                    <mxGeometry relative="1" as="geometry">
                        <mxPoint x="4360" y="3830" as="sourcePoint"/>
                        <mxPoint x="4537" y="3830" as="targetPoint"/>
                    </mxGeometry>
                </mxCell>
                <mxCell id="15" value="" style="endArrow=classic;html=1;entryX=0.013;entryY=0.55;entryDx=0;entryDy=0;entryPerimeter=0;" parent="1" target="53" edge="1">
                    <mxGeometry relative="1" as="geometry">
                        <mxPoint x="4730" y="3850" as="sourcePoint"/>
                        <mxPoint x="4937" y="3850" as="targetPoint"/>
                    </mxGeometry>
                </mxCell>
                <mxCell id="16" value="hitTest()l" style="edgeLabel;resizable=0;html=1;;align=center;verticalAlign=middle;" parent="15" connectable="0" vertex="1">
                    <mxGeometry relative="1" as="geometry"/>
                </mxCell>
                <mxCell id="18" value="" style="endArrow=classic;html=1;" parent="1" edge="1">
                    <mxGeometry relative="1" as="geometry">
                        <mxPoint x="4730.001538461539" y="3930" as="sourcePoint"/>
                        <mxPoint x="5180.54" y="3930" as="targetPoint"/>
                    </mxGeometry>
                </mxCell>
                <mxCell id="19" value="onClick()" style="edgeLabel;resizable=0;html=1;;align=center;verticalAlign=middle;" parent="18" connectable="0" vertex="1">
                    <mxGeometry relative="1" as="geometry"/>
                </mxCell>
                <mxCell id="20" value="ApplicationWindow" style="shape=umlLifeline;perimeter=lifelinePerimeter;whiteSpace=wrap;html=1;container=1;dropTarget=0;collapsible=0;recursiveResize=0;outlineConnect=0;portConstraint=eastwest;newEdgeStyle={&quot;curved&quot;:0,&quot;rounded&quot;:0};" parent="1" vertex="1">
                    <mxGeometry x="4460" y="3750" width="155" height="220" as="geometry"/>
                </mxCell>
                <mxCell id="21" value="" style="endArrow=classic;html=1;" parent="1" target="8" edge="1">
                    <mxGeometry relative="1" as="geometry">
                        <mxPoint x="4540" y="3840" as="sourcePoint"/>
                        <mxPoint x="4640" y="3840" as="targetPoint"/>
                    </mxGeometry>
                </mxCell>
                <mxCell id="22" value="handleClickEvent()" style="edgeLabel;resizable=0;html=1;;align=center;verticalAlign=middle;" parent="21" connectable="0" vertex="1">
                    <mxGeometry relative="1" as="geometry"/>
                </mxCell>
                <mxCell id="24" value="Register Click" style="shape=umlFrame;whiteSpace=wrap;html=1;pointerEvents=0;" parent="1" vertex="1">
                    <mxGeometry x="4250" y="3700" width="1040" height="300" as="geometry"/>
                </mxCell>
                <mxCell id="38" value="Actor" style="shape=umlActor;verticalLabelPosition=bottom;verticalAlign=top;html=1;" parent="1" vertex="1">
                    <mxGeometry x="150" y="790" width="30" height="60" as="geometry"/>
                </mxCell>
                <mxCell id="39" value="Clickable" style="shape=umlLifeline;perimeter=lifelinePerimeter;whiteSpace=wrap;html=1;container=1;dropTarget=0;collapsible=0;recursiveResize=0;outlineConnect=0;portConstraint=eastwest;newEdgeStyle={&quot;curved&quot;:0,&quot;rounded&quot;:0};" parent="1" vertex="1">
                    <mxGeometry x="460" y="800" width="155" height="220" as="geometry"/>
                </mxCell>
                <mxCell id="40" value="TableModeView" style="shape=umlLifeline;perimeter=lifelinePerimeter;whiteSpace=wrap;html=1;container=1;dropTarget=0;collapsible=0;recursiveResize=0;outlineConnect=0;portConstraint=eastwest;newEdgeStyle={&quot;curved&quot;:0,&quot;rounded&quot;:0};" parent="1" vertex="1">
                    <mxGeometry x="670" y="800" width="155" height="220" as="geometry"/>
                </mxCell>
                <mxCell id="62" value="Build Tables Mode View" style="html=1;align=left;spacingLeft=2;endArrow=block;rounded=0;edgeStyle=orthogonalEdgeStyle;curved=0;rounded=0;strokeWidth=2;startArrow=oval;startFill=1;" parent="40" edge="1">
                    <mxGeometry x="-0.0035" relative="1" as="geometry">
                        <mxPoint x="80" y="140" as="sourcePoint"/>
                        <Array as="points">
                            <mxPoint x="110" y="170"/>
                        </Array>
                        <mxPoint x="85" y="170" as="targetPoint"/>
                        <mxPoint as="offset"/>
                    </mxGeometry>
                </mxCell>
                <mxCell id="41" value="Database" style="shape=umlLifeline;perimeter=lifelinePerimeter;whiteSpace=wrap;html=1;container=1;dropTarget=0;collapsible=0;recursiveResize=0;outlineConnect=0;portConstraint=eastwest;newEdgeStyle={&quot;curved&quot;:0,&quot;rounded&quot;:0};" parent="1" vertex="1">
                    <mxGeometry x="900" y="800" width="155" height="220" as="geometry"/>
                </mxCell>
                <mxCell id="42" value="" style="endArrow=none;dashed=1;html=1;" parent="1" edge="1">
                    <mxGeometry width="50" height="50" relative="1" as="geometry">
                        <mxPoint x="165" y="1020" as="sourcePoint"/>
                        <mxPoint x="164.5" y="868.6700000000001" as="targetPoint"/>
                    </mxGeometry>
                </mxCell>
                <mxCell id="43" value="double click below the tables" style="endArrow=classic;html=1;" parent="1" edge="1">
                    <mxGeometry relative="1" as="geometry">
                        <mxPoint x="170" y="880" as="sourcePoint"/>
                        <mxPoint x="347" y="880" as="targetPoint"/>
                    </mxGeometry>
                </mxCell>
                <mxCell id="44" value="" style="endArrow=classic;html=1;" parent="1" target="40" edge="1">
                    <mxGeometry relative="1" as="geometry">
                        <mxPoint x="540" y="900" as="sourcePoint"/>
                        <mxPoint x="640" y="900" as="targetPoint"/>
                    </mxGeometry>
                </mxCell>
                <mxCell id="45" value="setState()" style="edgeLabel;resizable=0;html=1;;align=center;verticalAlign=middle;" parent="44" connectable="0" vertex="1">
                    <mxGeometry relative="1" as="geometry"/>
                </mxCell>
                <mxCell id="46" value="" style="endArrow=classic;html=1;" parent="1" target="41" edge="1">
                    <mxGeometry relative="1" as="geometry">
                        <mxPoint x="750" y="910" as="sourcePoint"/>
                        <mxPoint x="850" y="910" as="targetPoint"/>
                    </mxGeometry>
                </mxCell>
                <mxCell id="47" value="createTable()" style="edgeLabel;resizable=0;html=1;;align=center;verticalAlign=middle;" parent="46" connectable="0" vertex="1">
                    <mxGeometry relative="1" as="geometry"/>
                </mxCell>
                <mxCell id="48" value="ApplicationWindow" style="shape=umlLifeline;perimeter=lifelinePerimeter;whiteSpace=wrap;html=1;container=1;dropTarget=0;collapsible=0;recursiveResize=0;outlineConnect=0;portConstraint=eastwest;newEdgeStyle={&quot;curved&quot;:0,&quot;rounded&quot;:0};" parent="1" vertex="1">
                    <mxGeometry x="270" y="800" width="155" height="220" as="geometry"/>
                </mxCell>
                <mxCell id="51" value="Register Click" style="html=1;verticalAlign=bottom;startArrow=oval;startFill=1;endArrow=block;startSize=8;curved=0;rounded=0;strokeWidth=2;" parent="1" target="39" edge="1">
                    <mxGeometry width="60" relative="1" as="geometry">
                        <mxPoint x="350" y="890" as="sourcePoint"/>
                        <mxPoint x="410" y="890" as="targetPoint"/>
                    </mxGeometry>
                </mxCell>
                <mxCell id="53" value="Widgets calling hitTest on their children" style="ellipse;shape=umlControl;whiteSpace=wrap;html=1;" parent="1" vertex="1">
                    <mxGeometry x="4920" y="3790" width="95" height="110" as="geometry"/>
                </mxCell>
                <mxCell id="54" value="" style="endArrow=classic;html=1;exitX=0.143;exitY=0.839;exitDx=0;exitDy=0;exitPerimeter=0;" parent="1" source="53" target="8" edge="1">
                    <mxGeometry relative="1" as="geometry">
                        <mxPoint x="4640" y="3890" as="sourcePoint"/>
                        <mxPoint x="4740" y="3890" as="targetPoint"/>
                    </mxGeometry>
                </mxCell>
                <mxCell id="55" value="Clicked child object" style="edgeLabel;resizable=0;html=1;;align=center;verticalAlign=middle;" parent="54" connectable="0" vertex="1">
                    <mxGeometry relative="1" as="geometry"/>
                </mxCell>
                <mxCell id="63" value="Use Case: Create Table" style="shape=umlFrame;whiteSpace=wrap;html=1;pointerEvents=0;width=160;height=30;" parent="1" vertex="1">
                    <mxGeometry x="70" y="750" width="1020" height="320" as="geometry"/>
                </mxCell>
                <mxCell id="65" value="Widget" style="shape=umlLifeline;perimeter=lifelinePerimeter;whiteSpace=wrap;html=1;container=1;dropTarget=0;collapsible=0;recursiveResize=0;outlineConnect=0;portConstraint=eastwest;newEdgeStyle={&quot;curved&quot;:0,&quot;rounded&quot;:0};" parent="1" vertex="1">
                    <mxGeometry x="4550" y="4110" width="155" height="270" as="geometry"/>
                </mxCell>
                <mxCell id="75" value="ApplicationWindow" style="shape=umlLifeline;perimeter=lifelinePerimeter;whiteSpace=wrap;html=1;container=1;dropTarget=0;collapsible=0;recursiveResize=0;outlineConnect=0;portConstraint=eastwest;newEdgeStyle={&quot;curved&quot;:0,&quot;rounded&quot;:0};" parent="1" vertex="1">
                    <mxGeometry x="4360" y="4110" width="155" height="270" as="geometry"/>
                </mxCell>
                <mxCell id="80" value="" style="endArrow=classic;html=1;" parent="1" edge="1">
                    <mxGeometry relative="1" as="geometry">
                        <mxPoint x="4437.259259259259" y="4190" as="sourcePoint"/>
                        <mxPoint x="4627" y="4190" as="targetPoint"/>
                    </mxGeometry>
                </mxCell>
                <mxCell id="81" value="measure()" style="edgeLabel;resizable=0;html=1;;align=center;verticalAlign=middle;" parent="80" connectable="0" vertex="1">
                    <mxGeometry relative="1" as="geometry"/>
                </mxCell>
                <mxCell id="83" value="" style="endArrow=classic;html=1;" parent="1" target="75" edge="1">
                    <mxGeometry relative="1" as="geometry">
                        <mxPoint x="4320" y="4180" as="sourcePoint"/>
                        <mxPoint x="4420" y="4180" as="targetPoint"/>
                    </mxGeometry>
                </mxCell>
                <mxCell id="84" value="paint()" style="edgeLabel;resizable=0;html=1;;align=center;verticalAlign=middle;" parent="83" connectable="0" vertex="1">
                    <mxGeometry relative="1" as="geometry"/>
                </mxCell>
                <mxCell id="85" value="Recursivly determine&amp;nbsp;&lt;div&gt;Widget preferred&lt;/div&gt;&lt;div&gt;size based&amp;nbsp;&lt;span style=&quot;background-color: light-dark(#ffffff, var(--ge-dark-color, #121212));&quot;&gt;on&amp;nbsp;&lt;/span&gt;&lt;/div&gt;&lt;div&gt;&lt;span style=&quot;background-color: light-dark(#ffffff, var(--ge-dark-color, #121212));&quot;&gt;the children&#39;s preferred size&lt;/span&gt;&lt;/div&gt;" style="html=1;align=left;spacingLeft=2;endArrow=block;rounded=0;edgeStyle=orthogonalEdgeStyle;curved=0;rounded=0;" parent="1" edge="1">
                    <mxGeometry relative="1" as="geometry">
                        <mxPoint x="4630" y="4200" as="sourcePoint"/>
                        <Array as="points">
                            <mxPoint x="4660" y="4230"/>
                        </Array>
                        <mxPoint x="4635" y="4230" as="targetPoint"/>
                    </mxGeometry>
                </mxCell>
                <mxCell id="86" value="" style="endArrow=classic;html=1;" parent="1" edge="1">
                    <mxGeometry relative="1" as="geometry">
                        <mxPoint x="4437.259259259259" y="4260" as="sourcePoint"/>
                        <mxPoint x="4627" y="4260" as="targetPoint"/>
                    </mxGeometry>
                </mxCell>
                <mxCell id="87" value="layout()" style="edgeLabel;resizable=0;html=1;;align=center;verticalAlign=middle;" parent="86" connectable="0" vertex="1">
                    <mxGeometry relative="1" as="geometry"/>
                </mxCell>
                <mxCell id="88" value="Recursivly determine&amp;nbsp;&lt;div&gt;Widget actual&amp;nbsp;&lt;span style=&quot;background-color: light-dark(#ffffff, var(--ge-dark-color, #121212));&quot;&gt;size based&amp;nbsp;&lt;/span&gt;&lt;span style=&quot;background-color: light-dark(#ffffff, var(--ge-dark-color, #121212));&quot;&gt;on&amp;nbsp;&lt;/span&gt;&lt;/div&gt;&lt;div&gt;&lt;span style=&quot;background-color: light-dark(#ffffff, var(--ge-dark-color, #121212));&quot;&gt;given minSize and maxSIze&lt;/span&gt;&lt;/div&gt;&lt;div&gt;&lt;span style=&quot;background-color: light-dark(#ffffff, var(--ge-dark-color, #121212));&quot;&gt;(from parent)&amp;nbsp;&lt;/span&gt;&lt;/div&gt;" style="html=1;align=left;spacingLeft=2;endArrow=block;rounded=0;edgeStyle=orthogonalEdgeStyle;curved=0;rounded=0;" parent="1" edge="1">
                    <mxGeometry relative="1" as="geometry">
                        <mxPoint x="4630" y="4270" as="sourcePoint"/>
                        <Array as="points">
                            <mxPoint x="4660" y="4300"/>
                        </Array>
                        <mxPoint x="4635" y="4300" as="targetPoint"/>
                    </mxGeometry>
                </mxCell>
                <mxCell id="89" value="" style="endArrow=classic;html=1;" parent="1" edge="1">
                    <mxGeometry relative="1" as="geometry">
                        <mxPoint x="4439.999259259259" y="4329.26" as="sourcePoint"/>
                        <mxPoint x="4629.74" y="4329.26" as="targetPoint"/>
                    </mxGeometry>
                </mxCell>
                <mxCell id="90" value="paint()" style="edgeLabel;resizable=0;html=1;;align=center;verticalAlign=middle;" parent="89" connectable="0" vertex="1">
                    <mxGeometry relative="1" as="geometry"/>
                </mxCell>
                <mxCell id="91" value="Recursivly paint all the children&amp;nbsp;&lt;div&gt;at the correct position&lt;span style=&quot;background-color: light-dark(#ffffff, var(--ge-dark-color, #121212));&quot;&gt;&amp;nbsp;(set by parent)&lt;/span&gt;&lt;/div&gt;" style="html=1;align=left;spacingLeft=2;endArrow=block;rounded=0;edgeStyle=orthogonalEdgeStyle;curved=0;rounded=0;" parent="1" edge="1">
                    <mxGeometry relative="1" as="geometry">
                        <mxPoint x="4630" y="4340" as="sourcePoint"/>
                        <Array as="points">
                            <mxPoint x="4660" y="4370"/>
                        </Array>
                        <mxPoint x="4635" y="4370" as="targetPoint"/>
                    </mxGeometry>
                </mxCell>
                <mxCell id="92" value="Paint Application" style="shape=umlFrame;whiteSpace=wrap;html=1;pointerEvents=0;width=110;height=30;" parent="1" vertex="1">
                    <mxGeometry x="4250" y="4080" width="600" height="320" as="geometry"/>
                </mxCell>
                <mxCell id="93" value="Paint Aplication" style="html=1;verticalAlign=bottom;startArrow=circle;startFill=1;endArrow=open;startSize=6;endSize=8;curved=0;rounded=0;strokeWidth=2;" parent="1" edge="1">
                    <mxGeometry width="80" relative="1" as="geometry">
                        <mxPoint x="745.54" y="1000" as="sourcePoint"/>
                        <mxPoint x="345.0015384615381" y="1000" as="targetPoint"/>
                    </mxGeometry>
                </mxCell>
                <mxCell id="95" value="Actor" style="shape=umlActor;verticalLabelPosition=bottom;verticalAlign=top;html=1;" parent="1" vertex="1">
                    <mxGeometry x="150" y="1220" width="30" height="60" as="geometry"/>
                </mxCell>
                <mxCell id="96" value="InputText" style="shape=umlLifeline;perimeter=lifelinePerimeter;whiteSpace=wrap;html=1;container=1;dropTarget=0;collapsible=0;recursiveResize=0;outlineConnect=0;portConstraint=eastwest;newEdgeStyle={&quot;curved&quot;:0,&quot;rounded&quot;:0};" parent="1" vertex="1">
                    <mxGeometry x="460" y="1230" width="155" height="750" as="geometry"/>
                </mxCell>
                <mxCell id="97" value="ClickEventController" style="shape=umlLifeline;perimeter=lifelinePerimeter;whiteSpace=wrap;html=1;container=1;dropTarget=0;collapsible=0;recursiveResize=0;outlineConnect=0;portConstraint=eastwest;newEdgeStyle={&quot;curved&quot;:0,&quot;rounded&quot;:0};" parent="1" vertex="1">
                    <mxGeometry x="670" y="1230" width="155" height="750" as="geometry"/>
                </mxCell>
                <mxCell id="99" value="KeyEventController" style="shape=umlLifeline;perimeter=lifelinePerimeter;whiteSpace=wrap;html=1;container=1;dropTarget=0;collapsible=0;recursiveResize=0;outlineConnect=0;portConstraint=eastwest;newEdgeStyle={&quot;curved&quot;:0,&quot;rounded&quot;:0};" parent="1" vertex="1">
                    <mxGeometry x="900" y="1230" width="155" height="750" as="geometry"/>
                </mxCell>
                <mxCell id="101" value="click on table name" style="endArrow=classic;html=1;" parent="1" edge="1">
                    <mxGeometry relative="1" as="geometry">
                        <mxPoint x="170" y="1310" as="sourcePoint"/>
                        <mxPoint x="347" y="1310" as="targetPoint"/>
                    </mxGeometry>
                </mxCell>
                <mxCell id="106" value="ApplicationWindow" style="shape=umlLifeline;perimeter=lifelinePerimeter;whiteSpace=wrap;html=1;container=1;dropTarget=0;collapsible=0;recursiveResize=0;outlineConnect=0;portConstraint=eastwest;newEdgeStyle={&quot;curved&quot;:0,&quot;rounded&quot;:0};" parent="1" vertex="1">
                    <mxGeometry x="270" y="1230" width="155" height="750" as="geometry"/>
                </mxCell>
                <mxCell id="107" value="Register Click" style="html=1;verticalAlign=bottom;startArrow=oval;startFill=1;endArrow=block;startSize=8;curved=0;rounded=0;strokeWidth=2;" parent="1" target="96" edge="1">
                    <mxGeometry width="60" relative="1" as="geometry">
                        <mxPoint x="350" y="1320" as="sourcePoint"/>
                        <mxPoint x="410" y="1320" as="targetPoint"/>
                    </mxGeometry>
                </mxCell>
                <mxCell id="108" value="Use Case: Edit Table Name" style="shape=umlFrame;whiteSpace=wrap;html=1;pointerEvents=0;width=160;height=30;" parent="1" vertex="1">
                    <mxGeometry x="70" y="1180" width="1310" height="820" as="geometry"/>
                </mxCell>
                <mxCell id="110" value="setEditable()" style="html=1;align=left;spacingLeft=2;endArrow=block;rounded=0;edgeStyle=orthogonalEdgeStyle;curved=0;rounded=0;" parent="1" edge="1">
                    <mxGeometry relative="1" as="geometry">
                        <mxPoint x="540" y="1330" as="sourcePoint"/>
                        <Array as="points">
                            <mxPoint x="570" y="1360"/>
                        </Array>
                        <mxPoint x="545" y="1360" as="targetPoint"/>
                    </mxGeometry>
                </mxCell>
                <mxCell id="112" value="" style="endArrow=classic;html=1;" parent="1" edge="1">
                    <mxGeometry relative="1" as="geometry">
                        <mxPoint x="536.461538461539" y="1380" as="sourcePoint"/>
                        <mxPoint x="747" y="1380" as="targetPoint"/>
                    </mxGeometry>
                </mxCell>
                <mxCell id="113" value="setClickHandler()" style="edgeLabel;resizable=0;html=1;;align=center;verticalAlign=middle;" parent="112" connectable="0" vertex="1">
                    <mxGeometry relative="1" as="geometry"/>
                </mxCell>
                <mxCell id="114" value="" style="endArrow=classic;html=1;" parent="1" edge="1">
                    <mxGeometry relative="1" as="geometry">
                        <mxPoint x="747.1304347826081" y="1400" as="sourcePoint"/>
                        <mxPoint x="977" y="1400" as="targetPoint"/>
                    </mxGeometry>
                </mxCell>
                <mxCell id="115" value="setKeyHandler()" style="edgeLabel;resizable=0;html=1;;align=center;verticalAlign=middle;" parent="114" connectable="0" vertex="1">
                    <mxGeometry relative="1" as="geometry"/>
                </mxCell>
                <mxCell id="116" value="" style="endArrow=classic;html=1;" parent="1" edge="1">
                    <mxGeometry relative="1" as="geometry">
                        <mxPoint x="170" y="1440" as="sourcePoint"/>
                        <mxPoint x="347" y="1440" as="targetPoint"/>
                    </mxGeometry>
                </mxCell>
                <mxCell id="117" value="key presses" style="edgeLabel;resizable=0;html=1;;align=center;verticalAlign=middle;" parent="116" connectable="0" vertex="1">
                    <mxGeometry relative="1" as="geometry"/>
                </mxCell>
                <mxCell id="118" value="Actor" style="shape=umlActor;verticalLabelPosition=bottom;verticalAlign=top;html=1;" parent="1" vertex="1">
                    <mxGeometry x="1335" y="790" width="30" height="60" as="geometry"/>
                </mxCell>
                <mxCell id="119" value="CheckBox" style="shape=umlLifeline;perimeter=lifelinePerimeter;whiteSpace=wrap;html=1;container=1;dropTarget=0;collapsible=0;recursiveResize=0;outlineConnect=0;portConstraint=eastwest;newEdgeStyle={&quot;curved&quot;:0,&quot;rounded&quot;:0};" parent="1" vertex="1">
                    <mxGeometry x="1645" y="800" width="155" height="220" as="geometry"/>
                </mxCell>
                <mxCell id="120" value="TablesModeRow" style="shape=umlLifeline;perimeter=lifelinePerimeter;whiteSpace=wrap;html=1;container=1;dropTarget=0;collapsible=0;recursiveResize=0;outlineConnect=0;portConstraint=eastwest;newEdgeStyle={&quot;curved&quot;:0,&quot;rounded&quot;:0};" parent="1" vertex="1">
                    <mxGeometry x="1855" y="800" width="155" height="220" as="geometry"/>
                </mxCell>
                <mxCell id="121" value="TablesModeView" style="shape=umlLifeline;perimeter=lifelinePerimeter;whiteSpace=wrap;html=1;container=1;dropTarget=0;collapsible=0;recursiveResize=0;outlineConnect=0;portConstraint=eastwest;newEdgeStyle={&quot;curved&quot;:0,&quot;rounded&quot;:0};" parent="1" vertex="1">
                    <mxGeometry x="2050" y="800" width="155" height="220" as="geometry"/>
                </mxCell>
                <mxCell id="122" value="" style="endArrow=none;dashed=1;html=1;" parent="1" edge="1">
                    <mxGeometry width="50" height="50" relative="1" as="geometry">
                        <mxPoint x="1350" y="1020" as="sourcePoint"/>
                        <mxPoint x="1349.5" y="868.6700000000001" as="targetPoint"/>
                    </mxGeometry>
                </mxCell>
                <mxCell id="123" value="click on table checkbox" style="endArrow=classic;html=1;" parent="1" edge="1">
                    <mxGeometry relative="1" as="geometry">
                        <mxPoint x="1355" y="880" as="sourcePoint"/>
                        <mxPoint x="1532" y="880" as="targetPoint"/>
                    </mxGeometry>
                </mxCell>
                <mxCell id="124" value="ApplicationWindow" style="shape=umlLifeline;perimeter=lifelinePerimeter;whiteSpace=wrap;html=1;container=1;dropTarget=0;collapsible=0;recursiveResize=0;outlineConnect=0;portConstraint=eastwest;newEdgeStyle={&quot;curved&quot;:0,&quot;rounded&quot;:0};" parent="1" vertex="1">
                    <mxGeometry x="1455" y="800" width="155" height="220" as="geometry"/>
                </mxCell>
                <mxCell id="125" value="Register Click" style="html=1;verticalAlign=bottom;startArrow=oval;startFill=1;endArrow=block;startSize=8;curved=0;rounded=0;strokeWidth=2;" parent="1" target="119" edge="1">
                    <mxGeometry width="60" relative="1" as="geometry">
                        <mxPoint x="1535" y="890" as="sourcePoint"/>
                        <mxPoint x="1595" y="890" as="targetPoint"/>
                    </mxGeometry>
                </mxCell>
                <mxCell id="126" value="Use Case: Delete Table" style="shape=umlFrame;whiteSpace=wrap;html=1;pointerEvents=0;width=160;height=30;" parent="1" vertex="1">
                    <mxGeometry x="1255" y="750" width="1215" height="320" as="geometry"/>
                </mxCell>
                <mxCell id="128" value="" style="endArrow=classic;html=1;" parent="1" edge="1">
                    <mxGeometry relative="1" as="geometry">
                        <mxPoint x="1725.001538461538" y="900" as="sourcePoint"/>
                        <mxPoint x="1935.5400000000009" y="900" as="targetPoint"/>
                    </mxGeometry>
                </mxCell>
                <mxCell id="129" value="onChange()" style="edgeLabel;resizable=0;html=1;;align=center;verticalAlign=middle;" parent="128" connectable="0" vertex="1">
                    <mxGeometry relative="1" as="geometry"/>
                </mxCell>
                <mxCell id="130" value="" style="endArrow=classic;html=1;" parent="1" target="121" edge="1">
                    <mxGeometry relative="1" as="geometry">
                        <mxPoint x="1932.130434782608" y="909.29" as="sourcePoint"/>
                        <mxPoint x="2162" y="909.29" as="targetPoint"/>
                    </mxGeometry>
                </mxCell>
                <mxCell id="131" value="onSelect()" style="edgeLabel;resizable=0;html=1;;align=center;verticalAlign=middle;" parent="130" connectable="0" vertex="1">
                    <mxGeometry relative="1" as="geometry"/>
                </mxCell>
                <mxCell id="132" value="" style="endArrow=classic;html=1;" parent="1" edge="1">
                    <mxGeometry relative="1" as="geometry">
                        <mxPoint x="1350" y="940" as="sourcePoint"/>
                        <mxPoint x="1527" y="940" as="targetPoint"/>
                    </mxGeometry>
                </mxCell>
                <mxCell id="133" value="press delete" style="edgeLabel;resizable=0;html=1;;align=center;verticalAlign=middle;" parent="132" connectable="0" vertex="1">
                    <mxGeometry relative="1" as="geometry"/>
                </mxCell>
                <mxCell id="195" value="Actor" style="shape=umlActor;verticalLabelPosition=bottom;verticalAlign=top;html=1;" parent="1" vertex="1">
                    <mxGeometry x="67.5" y="3115" width="30" height="60" as="geometry"/>
                </mxCell>
                <mxCell id="196" value="Clickable" style="shape=umlLifeline;perimeter=lifelinePerimeter;whiteSpace=wrap;html=1;container=1;dropTarget=0;collapsible=0;recursiveResize=0;outlineConnect=0;portConstraint=eastwest;newEdgeStyle={&quot;curved&quot;:0,&quot;rounded&quot;:0};" parent="1" vertex="1">
                    <mxGeometry x="390.5" y="3125" width="155" height="300" as="geometry"/>
                </mxCell>
                <mxCell id="197" value="TableDesignModeView" style="shape=umlLifeline;perimeter=lifelinePerimeter;whiteSpace=wrap;html=1;container=1;dropTarget=0;collapsible=0;recursiveResize=0;outlineConnect=0;portConstraint=eastwest;newEdgeStyle={&quot;curved&quot;:0,&quot;rounded&quot;:0};" parent="1" vertex="1">
                    <mxGeometry x="600.5" y="3125" width="155" height="310" as="geometry"/>
                </mxCell>
                <mxCell id="198" value="Database" style="shape=umlLifeline;perimeter=lifelinePerimeter;whiteSpace=wrap;html=1;container=1;dropTarget=0;collapsible=0;recursiveResize=0;outlineConnect=0;portConstraint=eastwest;newEdgeStyle={&quot;curved&quot;:0,&quot;rounded&quot;:0};" parent="1" vertex="1">
                    <mxGeometry x="992.5" y="3125" width="155" height="300" as="geometry"/>
                </mxCell>
                <mxCell id="200" value="double click below list of columns" style="endArrow=classic;html=1;" parent="1" target="201" edge="1">
                    <mxGeometry relative="1" as="geometry">
                        <mxPoint x="87.5" y="3205" as="sourcePoint"/>
                        <mxPoint x="264.5" y="3205" as="targetPoint"/>
                    </mxGeometry>
                </mxCell>
                <mxCell id="201" value="ApplicationWindow" style="shape=umlLifeline;perimeter=lifelinePerimeter;whiteSpace=wrap;html=1;container=1;dropTarget=0;collapsible=0;recursiveResize=0;outlineConnect=0;portConstraint=eastwest;newEdgeStyle={&quot;curved&quot;:0,&quot;rounded&quot;:0};" parent="1" vertex="1">
                    <mxGeometry x="200.5" y="3125" width="155" height="300" as="geometry"/>
                </mxCell>
                <mxCell id="202" value="Register Click" style="html=1;verticalAlign=bottom;startArrow=oval;startFill=1;endArrow=block;startSize=8;curved=0;rounded=0;strokeWidth=2;" parent="1" target="196" edge="1">
                    <mxGeometry width="60" relative="1" as="geometry">
                        <mxPoint x="280.5" y="3215" as="sourcePoint"/>
                        <mxPoint x="340.5" y="3215" as="targetPoint"/>
                    </mxGeometry>
                </mxCell>
                <mxCell id="203" value="Use Case: Add Column" style="shape=umlFrame;whiteSpace=wrap;html=1;pointerEvents=0;width=160;height=30;" parent="1" vertex="1">
                    <mxGeometry x="-12.5" y="3075" width="1627.5" height="370" as="geometry"/>
                </mxCell>
                <mxCell id="205" value="" style="endArrow=classic;html=1;" parent="1" edge="1">
                    <mxGeometry relative="1" as="geometry">
                        <mxPoint x="466.96153846153857" y="3225" as="sourcePoint"/>
                        <mxPoint x="677.5" y="3225" as="targetPoint"/>
                    </mxGeometry>
                </mxCell>
                <mxCell id="206" value="setState()" style="edgeLabel;resizable=0;html=1;;align=center;verticalAlign=middle;" parent="205" connectable="0" vertex="1">
                    <mxGeometry relative="1" as="geometry"/>
                </mxCell>
                <mxCell id="207" value="" style="endArrow=classic;html=1;" parent="1" target="198" edge="1">
                    <mxGeometry relative="1" as="geometry">
                        <mxPoint x="677.6304347826087" y="3295" as="sourcePoint"/>
                        <mxPoint x="907.5" y="3295" as="targetPoint"/>
                    </mxGeometry>
                </mxCell>
                <mxCell id="208" value="addColumn()" style="edgeLabel;resizable=0;html=1;;align=center;verticalAlign=middle;" parent="207" connectable="0" vertex="1">
                    <mxGeometry relative="1" as="geometry"/>
                </mxCell>
                <mxCell id="212" value="DatabaseAppContext" style="shape=umlLifeline;perimeter=lifelinePerimeter;whiteSpace=wrap;html=1;container=1;dropTarget=0;collapsible=0;recursiveResize=0;outlineConnect=0;portConstraint=eastwest;newEdgeStyle={&quot;curved&quot;:0,&quot;rounded&quot;:0};" parent="1" vertex="1">
                    <mxGeometry x="797.5" y="3125" width="155" height="300" as="geometry"/>
                </mxCell>
                <mxCell id="213" value="" style="endArrow=classic;html=1;" parent="1" source="197" target="212" edge="1">
                    <mxGeometry relative="1" as="geometry">
                        <mxPoint x="476.96153846153857" y="3235" as="sourcePoint"/>
                        <mxPoint x="687.5" y="3235" as="targetPoint"/>
                        <Array as="points">
                            <mxPoint x="707.5" y="3235"/>
                        </Array>
                    </mxGeometry>
                </mxCell>
                <mxCell id="214" value="getDatabase()" style="edgeLabel;resizable=0;html=1;;align=center;verticalAlign=middle;" parent="213" connectable="0" vertex="1">
                    <mxGeometry relative="1" as="geometry"/>
                </mxCell>
                <mxCell id="216" value="" style="endArrow=classic;html=1;" parent="1" edge="1">
                    <mxGeometry relative="1" as="geometry">
                        <mxPoint x="874.4999999999995" y="3265" as="sourcePoint"/>
                        <mxPoint x="677.25" y="3265" as="targetPoint"/>
                    </mxGeometry>
                </mxCell>
                <mxCell id="217" value="Database object" style="edgeLabel;resizable=0;html=1;;align=center;verticalAlign=middle;" parent="216" connectable="0" vertex="1">
                    <mxGeometry relative="1" as="geometry"/>
                </mxCell>
                <mxCell id="218" value="Table" style="shape=umlLifeline;perimeter=lifelinePerimeter;whiteSpace=wrap;html=1;container=1;dropTarget=0;collapsible=0;recursiveResize=0;outlineConnect=0;portConstraint=eastwest;newEdgeStyle={&quot;curved&quot;:0,&quot;rounded&quot;:0};" parent="1" vertex="1">
                    <mxGeometry x="1197.5" y="3125" width="155" height="300" as="geometry"/>
                </mxCell>
                <mxCell id="219" value="" style="endArrow=classic;html=1;" parent="1" edge="1">
                    <mxGeometry relative="1" as="geometry">
                        <mxPoint x="1067.5" y="3315" as="sourcePoint"/>
                        <mxPoint x="1272.7499999999995" y="3315" as="targetPoint"/>
                    </mxGeometry>
                </mxCell>
                <mxCell id="220" value="createColumn()" style="edgeLabel;resizable=0;html=1;;align=center;verticalAlign=middle;" parent="219" connectable="0" vertex="1">
                    <mxGeometry relative="1" as="geometry"/>
                </mxCell>
                <mxCell id="221" value="Build Tabel Design Mode View" style="html=1;align=left;spacingLeft=2;endArrow=block;rounded=0;edgeStyle=orthogonalEdgeStyle;curved=0;rounded=0;strokeWidth=2;startArrow=oval;startFill=1;" parent="1" edge="1">
                    <mxGeometry relative="1" as="geometry">
                        <mxPoint x="677.5" y="3345" as="sourcePoint"/>
                        <Array as="points">
                            <mxPoint x="707.5" y="3375"/>
                        </Array>
                        <mxPoint x="682.5" y="3375" as="targetPoint"/>
                    </mxGeometry>
                </mxCell>
                <mxCell id="222" value="Paint Aplication" style="html=1;verticalAlign=bottom;startArrow=oval;startFill=1;endArrow=open;startSize=6;endSize=8;curved=0;rounded=0;strokeWidth=2;" parent="1" edge="1">
                    <mxGeometry width="80" relative="1" as="geometry">
                        <mxPoint x="677.5" y="3395" as="sourcePoint"/>
                        <mxPoint x="277.2500000000002" y="3395" as="targetPoint"/>
                    </mxGeometry>
                </mxCell>
                <mxCell id="223" value="" style="endArrow=none;dashed=1;html=1;" parent="1" edge="1">
                    <mxGeometry width="50" height="50" relative="1" as="geometry">
                        <mxPoint x="81.5" y="3425" as="sourcePoint"/>
                        <mxPoint x="81.88000000000011" y="3195" as="targetPoint"/>
                    </mxGeometry>
                </mxCell>
                <mxCell id="226" value="build()" style="endArrow=classic;html=1;" parent="1" edge="1">
                    <mxGeometry relative="1" as="geometry">
                        <mxPoint x="5520" y="3840" as="sourcePoint"/>
                        <mxPoint x="5637" y="3840" as="targetPoint"/>
                    </mxGeometry>
                </mxCell>
                <mxCell id="227" value="" style="endArrow=classic;html=1;" parent="1" edge="1">
                    <mxGeometry relative="1" as="geometry">
                        <mxPoint x="5830" y="3894.4400000000005" as="sourcePoint"/>
                        <mxPoint x="6037" y="3894.4400000000005" as="targetPoint"/>
                    </mxGeometry>
                </mxCell>
                <mxCell id="228" value="new TablesModeRow()" style="edgeLabel;resizable=0;html=1;;align=center;verticalAlign=middle;" parent="227" connectable="0" vertex="1">
                    <mxGeometry relative="1" as="geometry"/>
                </mxCell>
                <mxCell id="234" value="Database" style="shape=umlLifeline;perimeter=lifelinePerimeter;whiteSpace=wrap;html=1;container=1;dropTarget=0;collapsible=0;recursiveResize=0;outlineConnect=0;portConstraint=eastwest;newEdgeStyle={&quot;curved&quot;:0,&quot;rounded&quot;:0};" parent="1" vertex="1">
                    <mxGeometry x="5750" y="3760" width="155" height="220" as="geometry"/>
                </mxCell>
                <mxCell id="235" value="TablesModeRow" style="shape=umlLifeline;perimeter=lifelinePerimeter;whiteSpace=wrap;html=1;container=1;dropTarget=0;collapsible=0;recursiveResize=0;outlineConnect=0;portConstraint=eastwest;newEdgeStyle={&quot;curved&quot;:0,&quot;rounded&quot;:0};" parent="1" vertex="1">
                    <mxGeometry x="5960" y="3760" width="155" height="220" as="geometry"/>
                </mxCell>
                <mxCell id="238" value="TablesModeView" style="shape=umlLifeline;perimeter=lifelinePerimeter;whiteSpace=wrap;html=1;container=1;dropTarget=0;collapsible=0;recursiveResize=0;outlineConnect=0;portConstraint=eastwest;newEdgeStyle={&quot;curved&quot;:0,&quot;rounded&quot;:0};" parent="1" vertex="1">
                    <mxGeometry x="5560" y="3760" width="155" height="220" as="geometry"/>
                </mxCell>
                <mxCell id="239" value="Build Tables Mode View" style="shape=umlFrame;whiteSpace=wrap;html=1;pointerEvents=0;width=160;height=30;" parent="1" vertex="1">
                    <mxGeometry x="5500" y="3700" width="670" height="320" as="geometry"/>
                </mxCell>
                <mxCell id="241" value="" style="endArrow=classic;html=1;" parent="1" edge="1">
                    <mxGeometry relative="1" as="geometry">
                        <mxPoint x="5639.998888888889" y="3850" as="sourcePoint"/>
                        <mxPoint x="5830.11" y="3850" as="targetPoint"/>
                    </mxGeometry>
                </mxCell>
                <mxCell id="242" value="getTables()" style="edgeLabel;resizable=0;html=1;;align=center;verticalAlign=middle;" parent="241" connectable="0" vertex="1">
                    <mxGeometry relative="1" as="geometry"/>
                </mxCell>
                <mxCell id="244" value="Loop" style="shape=umlFrame;whiteSpace=wrap;html=1;pointerEvents=0;width=48;height=15;" parent="1" vertex="1">
                    <mxGeometry x="5802" y="3860" width="311" height="60" as="geometry"/>
                </mxCell>
                <mxCell id="245" value="build()" style="endArrow=classic;html=1;" parent="1" edge="1">
                    <mxGeometry relative="1" as="geometry">
                        <mxPoint x="5150" y="4225" as="sourcePoint"/>
                        <mxPoint x="5267" y="4225" as="targetPoint"/>
                    </mxGeometry>
                </mxCell>
                <mxCell id="248" value="DatabaseAppContext" style="shape=umlLifeline;perimeter=lifelinePerimeter;whiteSpace=wrap;html=1;container=1;dropTarget=0;collapsible=0;recursiveResize=0;outlineConnect=0;portConstraint=eastwest;newEdgeStyle={&quot;curved&quot;:0,&quot;rounded&quot;:0};" parent="1" vertex="1">
                    <mxGeometry x="5380" y="4145" width="155" height="250" as="geometry"/>
                </mxCell>
                <mxCell id="249" value="TableDesignRow" style="shape=umlLifeline;perimeter=lifelinePerimeter;whiteSpace=wrap;html=1;container=1;dropTarget=0;collapsible=0;recursiveResize=0;outlineConnect=0;portConstraint=eastwest;newEdgeStyle={&quot;curved&quot;:0,&quot;rounded&quot;:0};" parent="1" vertex="1">
                    <mxGeometry x="5965" y="4145" width="155" height="250" as="geometry"/>
                </mxCell>
                <mxCell id="250" value="TablesModeView" style="shape=umlLifeline;perimeter=lifelinePerimeter;whiteSpace=wrap;html=1;container=1;dropTarget=0;collapsible=0;recursiveResize=0;outlineConnect=0;portConstraint=eastwest;newEdgeStyle={&quot;curved&quot;:0,&quot;rounded&quot;:0};" parent="1" vertex="1">
                    <mxGeometry x="5190" y="4145" width="155" height="250" as="geometry"/>
                </mxCell>
                <mxCell id="251" value="Build Table Design Mode View" style="shape=umlFrame;whiteSpace=wrap;html=1;pointerEvents=0;width=180;height=40;" parent="1" vertex="1">
                    <mxGeometry x="5130" y="4085" width="1040" height="320" as="geometry"/>
                </mxCell>
                <mxCell id="252" value="" style="endArrow=classic;html=1;" parent="1" edge="1">
                    <mxGeometry relative="1" as="geometry">
                        <mxPoint x="5269.998888888889" y="4235" as="sourcePoint"/>
                        <mxPoint x="5460.11" y="4235" as="targetPoint"/>
                    </mxGeometry>
                </mxCell>
                <mxCell id="253" value="getCurrentTable()" style="edgeLabel;resizable=0;html=1;;align=center;verticalAlign=middle;" parent="252" connectable="0" vertex="1">
                    <mxGeometry relative="1" as="geometry"/>
                </mxCell>
                <mxCell id="254" value="Loop" style="shape=umlFrame;whiteSpace=wrap;html=1;pointerEvents=0;width=48;height=15;" parent="1" vertex="1">
                    <mxGeometry x="5240" y="4325" width="840" height="60" as="geometry"/>
                </mxCell>
                <mxCell id="255" value="Database" style="shape=umlLifeline;perimeter=lifelinePerimeter;whiteSpace=wrap;html=1;container=1;dropTarget=0;collapsible=0;recursiveResize=0;outlineConnect=0;portConstraint=eastwest;newEdgeStyle={&quot;curved&quot;:0,&quot;rounded&quot;:0};" parent="1" vertex="1">
                    <mxGeometry x="5575" y="4145" width="155" height="250" as="geometry"/>
                </mxCell>
                <mxCell id="256" value="" style="endArrow=classic;html=1;" parent="1" source="250" target="255" edge="1">
                    <mxGeometry relative="1" as="geometry">
                        <mxPoint x="5470" y="4289.4400000000005" as="sourcePoint"/>
                        <mxPoint x="5677" y="4289.4400000000005" as="targetPoint"/>
                    </mxGeometry>
                </mxCell>
                <mxCell id="257" value="getColumnNames()" style="edgeLabel;resizable=0;html=1;;align=center;verticalAlign=middle;" parent="256" connectable="0" vertex="1">
                    <mxGeometry relative="1" as="geometry"/>
                </mxCell>
                <mxCell id="258" value="Table" style="shape=umlLifeline;perimeter=lifelinePerimeter;whiteSpace=wrap;html=1;container=1;dropTarget=0;collapsible=0;recursiveResize=0;outlineConnect=0;portConstraint=eastwest;newEdgeStyle={&quot;curved&quot;:0,&quot;rounded&quot;:0};" parent="1" vertex="1">
                    <mxGeometry x="5770" y="4145" width="155" height="250" as="geometry"/>
                </mxCell>
                <mxCell id="259" value="" style="endArrow=classic;html=1;" parent="1" edge="1">
                    <mxGeometry relative="1" as="geometry">
                        <mxPoint x="5651.888888888889" y="4265" as="sourcePoint"/>
                        <mxPoint x="5847" y="4265" as="targetPoint"/>
                    </mxGeometry>
                </mxCell>
                <mxCell id="260" value="getColumns()" style="edgeLabel;resizable=0;html=1;;align=center;verticalAlign=middle;" parent="259" connectable="0" vertex="1">
                    <mxGeometry relative="1" as="geometry"/>
                </mxCell>
                <mxCell id="261" value="" style="endArrow=classic;html=1;" parent="1" edge="1">
                    <mxGeometry relative="1" as="geometry">
                        <mxPoint x="5847" y="4285" as="sourcePoint"/>
                        <mxPoint x="5651.888888888889" y="4285" as="targetPoint"/>
                    </mxGeometry>
                </mxCell>
                <mxCell id="262" value="Column Names" style="edgeLabel;resizable=0;html=1;;align=center;verticalAlign=middle;" parent="261" connectable="0" vertex="1">
                    <mxGeometry relative="1" as="geometry"/>
                </mxCell>
                <mxCell id="263" value="" style="endArrow=classic;html=1;entryX=0.516;entryY=0.682;entryDx=0;entryDy=0;entryPerimeter=0;" parent="1" edge="1">
                    <mxGeometry relative="1" as="geometry">
                        <mxPoint x="5648.79" y="4305" as="sourcePoint"/>
                        <mxPoint x="5266.21" y="4305.04" as="targetPoint"/>
                    </mxGeometry>
                </mxCell>
                <mxCell id="264" value="Column Names" style="edgeLabel;resizable=0;html=1;;align=center;verticalAlign=middle;" parent="263" connectable="0" vertex="1">
                    <mxGeometry relative="1" as="geometry"/>
                </mxCell>
                <mxCell id="265" value="" style="endArrow=classic;html=1;" parent="1" edge="1">
                    <mxGeometry relative="1" as="geometry">
                        <mxPoint x="5264.948888888889" y="4355" as="sourcePoint"/>
                        <mxPoint x="6040.0599999999995" y="4355" as="targetPoint"/>
                    </mxGeometry>
                </mxCell>
                <mxCell id="266" value="new TableDesignRow()" style="edgeLabel;resizable=0;html=1;;align=center;verticalAlign=middle;" parent="265" connectable="0" vertex="1">
                    <mxGeometry relative="1" as="geometry"/>
                </mxCell>
                <mxCell id="290" value="" style="endArrow=classic;html=1;" parent="1" target="96" edge="1">
                    <mxGeometry relative="1" as="geometry">
                        <mxPoint x="343" y="1454.5" as="sourcePoint"/>
                        <mxPoint x="520" y="1454.5" as="targetPoint"/>
                    </mxGeometry>
                </mxCell>
                <mxCell id="291" value="onKeyPress()" style="edgeLabel;resizable=0;html=1;;align=center;verticalAlign=middle;" parent="290" connectable="0" vertex="1">
                    <mxGeometry relative="1" as="geometry"/>
                </mxCell>
                <mxCell id="292" value="Build Tables Mode View" style="html=1;align=left;spacingLeft=2;endArrow=block;rounded=0;edgeStyle=orthogonalEdgeStyle;curved=0;rounded=0;strokeWidth=2;startArrow=oval;startFill=1;" parent="1" edge="1">
                    <mxGeometry x="-0.0035" relative="1" as="geometry">
                        <mxPoint x="540" y="1470" as="sourcePoint"/>
                        <Array as="points">
                            <mxPoint x="570" y="1500"/>
                        </Array>
                        <mxPoint x="545" y="1500" as="targetPoint"/>
                        <mxPoint as="offset"/>
                    </mxGeometry>
                </mxCell>
                <mxCell id="293" value="" style="endArrow=none;dashed=1;html=1;" parent="1" edge="1">
                    <mxGeometry width="50" height="50" relative="1" as="geometry">
                        <mxPoint x="160" y="1980" as="sourcePoint"/>
                        <mxPoint x="160" y="1310" as="targetPoint"/>
                    </mxGeometry>
                </mxCell>
                <mxCell id="294" value="" style="endArrow=classic;html=1;" parent="1" edge="1">
                    <mxGeometry relative="1" as="geometry">
                        <mxPoint x="170" y="1530" as="sourcePoint"/>
                        <mxPoint x="347" y="1530" as="targetPoint"/>
                    </mxGeometry>
                </mxCell>
                <mxCell id="295" value="press enter or click outside table" style="edgeLabel;resizable=0;html=1;;align=center;verticalAlign=middle;" parent="294" connectable="0" vertex="1">
                    <mxGeometry relative="1" as="geometry"/>
                </mxCell>
                <mxCell id="296" value="Register Click" style="html=1;verticalAlign=bottom;startArrow=oval;startFill=1;endArrow=block;startSize=8;curved=0;rounded=0;strokeWidth=2;" parent="1" edge="1">
                    <mxGeometry width="60" relative="1" as="geometry">
                        <mxPoint x="350" y="1540" as="sourcePoint"/>
                        <mxPoint x="537" y="1540" as="targetPoint"/>
                    </mxGeometry>
                </mxCell>
                <mxCell id="297" value="" style="endArrow=classic;html=1;" parent="1" target="96" edge="1">
                    <mxGeometry relative="1" as="geometry">
                        <mxPoint x="350" y="1560" as="sourcePoint"/>
                        <mxPoint x="544" y="1560.5" as="targetPoint"/>
                    </mxGeometry>
                </mxCell>
                <mxCell id="298" value="onKeyPress()" style="edgeLabel;resizable=0;html=1;;align=center;verticalAlign=middle;" parent="297" connectable="0" vertex="1">
                    <mxGeometry relative="1" as="geometry"/>
                </mxCell>
                <mxCell id="299" value="setEditable()" style="html=1;align=left;spacingLeft=2;endArrow=block;rounded=0;edgeStyle=orthogonalEdgeStyle;curved=0;rounded=0;" parent="1" edge="1">
                    <mxGeometry relative="1" as="geometry">
                        <mxPoint x="540.5" y="1630.0000000000002" as="sourcePoint"/>
                        <Array as="points">
                            <mxPoint x="570.5" y="1660.0000000000002"/>
                        </Array>
                        <mxPoint x="545.5" y="1660.0000000000002" as="targetPoint"/>
                    </mxGeometry>
                </mxCell>
                <mxCell id="300" value="Database" style="shape=umlLifeline;perimeter=lifelinePerimeter;whiteSpace=wrap;html=1;container=1;dropTarget=0;collapsible=0;recursiveResize=0;outlineConnect=0;portConstraint=eastwest;newEdgeStyle={&quot;curved&quot;:0,&quot;rounded&quot;:0};" parent="1" vertex="1">
                    <mxGeometry x="1100" y="1230" width="155" height="750" as="geometry"/>
                </mxCell>
                <mxCell id="301" value="" style="endArrow=classic;html=1;" parent="1" edge="1">
                    <mxGeometry relative="1" as="geometry">
                        <mxPoint x="540.5" y="1680.0000000000002" as="sourcePoint"/>
                        <mxPoint x="1177.5000000000005" y="1680.0000000000002" as="targetPoint"/>
                    </mxGeometry>
                </mxCell>
                <mxCell id="302" value="updateTableName()" style="edgeLabel;resizable=0;html=1;;align=center;verticalAlign=middle;" parent="301" connectable="0" vertex="1">
                    <mxGeometry relative="1" as="geometry"/>
                </mxCell>
                <mxCell id="304" value="Actor" style="shape=umlActor;verticalLabelPosition=bottom;verticalAlign=top;html=1;" parent="1" vertex="1">
                    <mxGeometry x="5850" y="720" width="30" height="60" as="geometry"/>
                </mxCell>
                <mxCell id="305" value="Clickable" style="shape=umlLifeline;perimeter=lifelinePerimeter;whiteSpace=wrap;html=1;container=1;dropTarget=0;collapsible=0;recursiveResize=0;outlineConnect=0;portConstraint=eastwest;newEdgeStyle={&quot;curved&quot;:0,&quot;rounded&quot;:0};" parent="1" vertex="1">
                    <mxGeometry x="6173" y="730" width="155" height="350" as="geometry"/>
                </mxCell>
                <mxCell id="306" value="TableDesignModeView" style="shape=umlLifeline;perimeter=lifelinePerimeter;whiteSpace=wrap;html=1;container=1;dropTarget=0;collapsible=0;recursiveResize=0;outlineConnect=0;portConstraint=eastwest;newEdgeStyle={&quot;curved&quot;:0,&quot;rounded&quot;:0};" parent="1" vertex="1">
                    <mxGeometry x="6383" y="730" width="155" height="350" as="geometry"/>
                </mxCell>
                <mxCell id="307" value="Database" style="shape=umlLifeline;perimeter=lifelinePerimeter;whiteSpace=wrap;html=1;container=1;dropTarget=0;collapsible=0;recursiveResize=0;outlineConnect=0;portConstraint=eastwest;newEdgeStyle={&quot;curved&quot;:0,&quot;rounded&quot;:0};" parent="1" vertex="1">
                    <mxGeometry x="6775" y="730" width="155" height="340" as="geometry"/>
                </mxCell>
                <mxCell id="308" value="double click below list of rows" style="endArrow=classic;html=1;" parent="1" target="309" edge="1">
                    <mxGeometry relative="1" as="geometry">
                        <mxPoint x="5870" y="810" as="sourcePoint"/>
                        <mxPoint x="6047" y="810" as="targetPoint"/>
                    </mxGeometry>
                </mxCell>
                <mxCell id="309" value="ApplicationWindow" style="shape=umlLifeline;perimeter=lifelinePerimeter;whiteSpace=wrap;html=1;container=1;dropTarget=0;collapsible=0;recursiveResize=0;outlineConnect=0;portConstraint=eastwest;newEdgeStyle={&quot;curved&quot;:0,&quot;rounded&quot;:0};" parent="1" vertex="1">
                    <mxGeometry x="5983" y="730" width="155" height="350" as="geometry"/>
                </mxCell>
                <mxCell id="310" value="Register Click" style="html=1;verticalAlign=bottom;startArrow=oval;startFill=1;endArrow=block;startSize=8;curved=0;rounded=0;strokeWidth=2;" parent="1" target="305" edge="1">
                    <mxGeometry width="60" relative="1" as="geometry">
                        <mxPoint x="6063" y="820" as="sourcePoint"/>
                        <mxPoint x="6123" y="820" as="targetPoint"/>
                    </mxGeometry>
                </mxCell>
                <mxCell id="311" value="Use Case: Add Row" style="shape=umlFrame;whiteSpace=wrap;html=1;pointerEvents=0;width=160;height=30;" parent="1" vertex="1">
                    <mxGeometry x="5770" y="680" width="1827.5" height="430" as="geometry"/>
                </mxCell>
                <mxCell id="312" value="" style="endArrow=classic;html=1;" parent="1" edge="1">
                    <mxGeometry relative="1" as="geometry">
                        <mxPoint x="6249.461538461539" y="830" as="sourcePoint"/>
                        <mxPoint x="6460" y="830" as="targetPoint"/>
                    </mxGeometry>
                </mxCell>
                <mxCell id="313" value="setState()" style="edgeLabel;resizable=0;html=1;;align=center;verticalAlign=middle;" parent="312" connectable="0" vertex="1">
                    <mxGeometry relative="1" as="geometry"/>
                </mxCell>
                <mxCell id="314" value="" style="endArrow=classic;html=1;" parent="1" target="307" edge="1">
                    <mxGeometry relative="1" as="geometry">
                        <mxPoint x="6460.130434782609" y="900" as="sourcePoint"/>
                        <mxPoint x="6690" y="900" as="targetPoint"/>
                    </mxGeometry>
                </mxCell>
                <mxCell id="315" value="addRow()" style="edgeLabel;resizable=0;html=1;;align=center;verticalAlign=middle;" parent="314" connectable="0" vertex="1">
                    <mxGeometry relative="1" as="geometry"/>
                </mxCell>
                <mxCell id="316" value="DatabaseAppContext" style="shape=umlLifeline;perimeter=lifelinePerimeter;whiteSpace=wrap;html=1;container=1;dropTarget=0;collapsible=0;recursiveResize=0;outlineConnect=0;portConstraint=eastwest;newEdgeStyle={&quot;curved&quot;:0,&quot;rounded&quot;:0};" parent="1" vertex="1">
                    <mxGeometry x="6580" y="730" width="155" height="350" as="geometry"/>
                </mxCell>
                <mxCell id="317" value="" style="endArrow=classic;html=1;" parent="1" source="306" target="316" edge="1">
                    <mxGeometry relative="1" as="geometry">
                        <mxPoint x="6259.461538461539" y="840" as="sourcePoint"/>
                        <mxPoint x="6470" y="840" as="targetPoint"/>
                        <Array as="points">
                            <mxPoint x="6490" y="840"/>
                        </Array>
                    </mxGeometry>
                </mxCell>
                <mxCell id="318" value="getTable()" style="edgeLabel;resizable=0;html=1;;align=center;verticalAlign=middle;" parent="317" connectable="0" vertex="1">
                    <mxGeometry relative="1" as="geometry"/>
                </mxCell>
                <mxCell id="319" value="" style="endArrow=classic;html=1;" parent="1" edge="1">
                    <mxGeometry relative="1" as="geometry">
                        <mxPoint x="6657" y="870" as="sourcePoint"/>
                        <mxPoint x="6459.75" y="870" as="targetPoint"/>
                    </mxGeometry>
                </mxCell>
                <mxCell id="320" value="Current Table Name" style="edgeLabel;resizable=0;html=1;;align=center;verticalAlign=middle;" parent="319" connectable="0" vertex="1">
                    <mxGeometry relative="1" as="geometry"/>
                </mxCell>
                <mxCell id="321" value="Table" style="shape=umlLifeline;perimeter=lifelinePerimeter;whiteSpace=wrap;html=1;container=1;dropTarget=0;collapsible=0;recursiveResize=0;outlineConnect=0;portConstraint=eastwest;newEdgeStyle={&quot;curved&quot;:0,&quot;rounded&quot;:0};" parent="1" vertex="1">
                    <mxGeometry x="6980" y="730" width="155" height="360" as="geometry"/>
                </mxCell>
                <mxCell id="322" value="" style="endArrow=classic;html=1;" parent="1" edge="1">
                    <mxGeometry relative="1" as="geometry">
                        <mxPoint x="6850" y="920" as="sourcePoint"/>
                        <mxPoint x="7055.25" y="920" as="targetPoint"/>
                    </mxGeometry>
                </mxCell>
                <mxCell id="323" value="createRow()" style="edgeLabel;resizable=0;html=1;;align=center;verticalAlign=middle;" parent="322" connectable="0" vertex="1">
                    <mxGeometry relative="1" as="geometry"/>
                </mxCell>
                <mxCell id="324" value="Build Tabel Design Mode View" style="html=1;align=left;spacingLeft=2;endArrow=block;rounded=0;edgeStyle=orthogonalEdgeStyle;curved=0;rounded=0;strokeWidth=2;startArrow=oval;startFill=1;" parent="1" edge="1">
                    <mxGeometry relative="1" as="geometry">
                        <mxPoint x="6460" y="1040" as="sourcePoint"/>
                        <Array as="points">
                            <mxPoint x="6490" y="1070"/>
                        </Array>
                        <mxPoint x="6465" y="1070" as="targetPoint"/>
                    </mxGeometry>
                </mxCell>
                <mxCell id="325" value="Paint Aplication" style="html=1;verticalAlign=bottom;startArrow=oval;startFill=1;endArrow=open;startSize=6;endSize=8;curved=0;rounded=0;strokeWidth=2;" parent="1" edge="1">
                    <mxGeometry width="80" relative="1" as="geometry">
                        <mxPoint x="6455.12" y="1078.5699999999997" as="sourcePoint"/>
                        <mxPoint x="6054.87" y="1078.5699999999997" as="targetPoint"/>
                    </mxGeometry>
                </mxCell>
                <mxCell id="326" value="" style="endArrow=none;dashed=1;html=1;" parent="1" edge="1">
                    <mxGeometry width="50" height="50" relative="1" as="geometry">
                        <mxPoint x="5864.43" y="1080" as="sourcePoint"/>
                        <mxPoint x="5864.29" y="810" as="targetPoint"/>
                    </mxGeometry>
                </mxCell>
                <mxCell id="328" value="Column" style="shape=umlLifeline;perimeter=lifelinePerimeter;whiteSpace=wrap;html=1;container=1;dropTarget=0;collapsible=0;recursiveResize=0;outlineConnect=0;portConstraint=eastwest;newEdgeStyle={&quot;curved&quot;:0,&quot;rounded&quot;:0};" parent="1" vertex="1">
                    <mxGeometry x="1395" y="3125" width="155" height="300" as="geometry"/>
                </mxCell>
                <mxCell id="329" value="" style="endArrow=classic;html=1;" parent="1" edge="1">
                    <mxGeometry relative="1" as="geometry">
                        <mxPoint x="1275" y="3325" as="sourcePoint"/>
                        <mxPoint x="1472" y="3324.999999999999" as="targetPoint"/>
                    </mxGeometry>
                </mxCell>
                <mxCell id="330" value="new Column()" style="edgeLabel;resizable=0;html=1;;align=center;verticalAlign=middle;" parent="329" connectable="0" vertex="1">
                    <mxGeometry relative="1" as="geometry"/>
                </mxCell>
                <mxCell id="331" value="Row" style="shape=umlLifeline;perimeter=lifelinePerimeter;whiteSpace=wrap;html=1;container=1;dropTarget=0;collapsible=0;recursiveResize=0;outlineConnect=0;portConstraint=eastwest;newEdgeStyle={&quot;curved&quot;:0,&quot;rounded&quot;:0};" parent="1" vertex="1">
                    <mxGeometry x="7177.5" y="730" width="155" height="350" as="geometry"/>
                </mxCell>
                <mxCell id="332" value="" style="endArrow=classic;html=1;" parent="1" edge="1">
                    <mxGeometry relative="1" as="geometry">
                        <mxPoint x="7057.5" y="930" as="sourcePoint"/>
                        <mxPoint x="7257.5" y="930" as="targetPoint"/>
                    </mxGeometry>
                </mxCell>
                <mxCell id="333" value="new Row()" style="edgeLabel;resizable=0;html=1;;align=center;verticalAlign=middle;" parent="332" connectable="0" vertex="1">
                    <mxGeometry relative="1" as="geometry"/>
                </mxCell>
                <mxCell id="334" value="" style="endArrow=classic;html=1;" parent="1" edge="1">
                    <mxGeometry relative="1" as="geometry">
                        <mxPoint x="7052.5" y="950" as="sourcePoint"/>
                        <mxPoint x="7252.5" y="950" as="targetPoint"/>
                    </mxGeometry>
                </mxCell>
                <mxCell id="335" value="createCells()" style="edgeLabel;resizable=0;html=1;;align=center;verticalAlign=middle;" parent="334" connectable="0" vertex="1">
                    <mxGeometry relative="1" as="geometry"/>
                </mxCell>
                <mxCell id="336" value="Cell" style="shape=umlLifeline;perimeter=lifelinePerimeter;whiteSpace=wrap;html=1;container=1;dropTarget=0;collapsible=0;recursiveResize=0;outlineConnect=0;portConstraint=eastwest;newEdgeStyle={&quot;curved&quot;:0,&quot;rounded&quot;:0};" parent="1" vertex="1">
                    <mxGeometry x="7377.5" y="730" width="155" height="350" as="geometry"/>
                </mxCell>
                <mxCell id="337" value="Loop" style="shape=umlFrame;whiteSpace=wrap;html=1;pointerEvents=0;width=48;height=15;" parent="1" vertex="1">
                    <mxGeometry x="7207.5" y="960" width="280" height="60" as="geometry"/>
                </mxCell>
                <mxCell id="338" value="" style="endArrow=classic;html=1;" parent="1" edge="1">
                    <mxGeometry relative="1" as="geometry">
                        <mxPoint x="7257.501428571428" y="1009.9999999999991" as="sourcePoint"/>
                        <mxPoint x="7458.43" y="1010" as="targetPoint"/>
                    </mxGeometry>
                </mxCell>
                <mxCell id="339" value="new Cell()" style="edgeLabel;resizable=0;html=1;;align=center;verticalAlign=middle;" parent="338" connectable="0" vertex="1">
                    <mxGeometry relative="1" as="geometry"/>
                </mxCell>
                <mxCell id="340" value="createCell()" style="html=1;align=left;spacingLeft=2;endArrow=block;rounded=0;edgeStyle=orthogonalEdgeStyle;curved=0;rounded=0;" parent="1" edge="1">
                    <mxGeometry relative="1" as="geometry">
                        <mxPoint x="7257.5" y="970" as="sourcePoint"/>
                        <Array as="points">
                            <mxPoint x="7287.5" y="1000"/>
                        </Array>
                        <mxPoint x="7262.5" y="1000" as="targetPoint"/>
                    </mxGeometry>
                </mxCell>
                <mxCell id="341" value="Actor" style="shape=umlActor;verticalLabelPosition=bottom;verticalAlign=top;html=1;" parent="1" vertex="1">
                    <mxGeometry x="2097.5" y="3635" width="30" height="60" as="geometry"/>
                </mxCell>
                <mxCell id="342" value="InputText" style="shape=umlLifeline;perimeter=lifelinePerimeter;whiteSpace=wrap;html=1;container=1;dropTarget=0;collapsible=0;recursiveResize=0;outlineConnect=0;portConstraint=eastwest;newEdgeStyle={&quot;curved&quot;:0,&quot;rounded&quot;:0};" parent="1" vertex="1">
                    <mxGeometry x="2407.5" y="3645" width="155" height="605" as="geometry"/>
                </mxCell>
                <mxCell id="343" value="ClickEventController" style="shape=umlLifeline;perimeter=lifelinePerimeter;whiteSpace=wrap;html=1;container=1;dropTarget=0;collapsible=0;recursiveResize=0;outlineConnect=0;portConstraint=eastwest;newEdgeStyle={&quot;curved&quot;:0,&quot;rounded&quot;:0};" parent="1" vertex="1">
                    <mxGeometry x="2617.5" y="3645" width="155" height="605" as="geometry"/>
                </mxCell>
                <mxCell id="344" value="KeyEventController" style="shape=umlLifeline;perimeter=lifelinePerimeter;whiteSpace=wrap;html=1;container=1;dropTarget=0;collapsible=0;recursiveResize=0;outlineConnect=0;portConstraint=eastwest;newEdgeStyle={&quot;curved&quot;:0,&quot;rounded&quot;:0};" parent="1" vertex="1">
                    <mxGeometry x="2847.5" y="3645" width="155" height="605" as="geometry"/>
                </mxCell>
                <mxCell id="345" value="click on column name" style="endArrow=classic;html=1;" parent="1" edge="1">
                    <mxGeometry relative="1" as="geometry">
                        <mxPoint x="2117.5" y="3725" as="sourcePoint"/>
                        <mxPoint x="2294.5" y="3725" as="targetPoint"/>
                    </mxGeometry>
                </mxCell>
                <mxCell id="346" value="ApplicationWindow" style="shape=umlLifeline;perimeter=lifelinePerimeter;whiteSpace=wrap;html=1;container=1;dropTarget=0;collapsible=0;recursiveResize=0;outlineConnect=0;portConstraint=eastwest;newEdgeStyle={&quot;curved&quot;:0,&quot;rounded&quot;:0};" parent="1" vertex="1">
                    <mxGeometry x="2217.5" y="3645" width="155" height="605" as="geometry"/>
                </mxCell>
                <mxCell id="347" value="Register Click" style="html=1;verticalAlign=bottom;startArrow=oval;startFill=1;endArrow=block;startSize=8;curved=0;rounded=0;strokeWidth=2;" parent="1" target="342" edge="1">
                    <mxGeometry width="60" relative="1" as="geometry">
                        <mxPoint x="2297.5" y="3735" as="sourcePoint"/>
                        <mxPoint x="2357.5" y="3735" as="targetPoint"/>
                    </mxGeometry>
                </mxCell>
                <mxCell id="348" value="Use Case: Edit Column Name" style="shape=umlFrame;whiteSpace=wrap;html=1;pointerEvents=0;width=180;height=30;" parent="1" vertex="1">
                    <mxGeometry x="2017.5" y="3595" width="1580" height="675" as="geometry"/>
                </mxCell>
                <mxCell id="349" value="setEditable()" style="html=1;align=left;spacingLeft=2;endArrow=block;rounded=0;edgeStyle=orthogonalEdgeStyle;curved=0;rounded=0;" parent="1" edge="1">
                    <mxGeometry relative="1" as="geometry">
                        <mxPoint x="2487.5" y="3745" as="sourcePoint"/>
                        <Array as="points">
                            <mxPoint x="2517.5" y="3775"/>
                        </Array>
                        <mxPoint x="2492.5" y="3775" as="targetPoint"/>
                    </mxGeometry>
                </mxCell>
                <mxCell id="350" value="" style="endArrow=classic;html=1;" parent="1" edge="1">
                    <mxGeometry relative="1" as="geometry">
                        <mxPoint x="2483.9615384615386" y="3795" as="sourcePoint"/>
                        <mxPoint x="2694.5" y="3795" as="targetPoint"/>
                    </mxGeometry>
                </mxCell>
                <mxCell id="351" value="setClickHandler()" style="edgeLabel;resizable=0;html=1;;align=center;verticalAlign=middle;" parent="350" connectable="0" vertex="1">
                    <mxGeometry relative="1" as="geometry"/>
                </mxCell>
                <mxCell id="352" value="" style="endArrow=classic;html=1;" parent="1" edge="1">
                    <mxGeometry relative="1" as="geometry">
                        <mxPoint x="2694.630434782609" y="3815" as="sourcePoint"/>
                        <mxPoint x="2924.5" y="3815" as="targetPoint"/>
                    </mxGeometry>
                </mxCell>
                <mxCell id="353" value="setKeyHandler()" style="edgeLabel;resizable=0;html=1;;align=center;verticalAlign=middle;" parent="352" connectable="0" vertex="1">
                    <mxGeometry relative="1" as="geometry"/>
                </mxCell>
                <mxCell id="354" value="" style="endArrow=classic;html=1;" parent="1" edge="1">
                    <mxGeometry relative="1" as="geometry">
                        <mxPoint x="2117.5" y="3855" as="sourcePoint"/>
                        <mxPoint x="2294.5" y="3855" as="targetPoint"/>
                    </mxGeometry>
                </mxCell>
                <mxCell id="355" value="key presses" style="edgeLabel;resizable=0;html=1;;align=center;verticalAlign=middle;" parent="354" connectable="0" vertex="1">
                    <mxGeometry relative="1" as="geometry"/>
                </mxCell>
                <mxCell id="356" value="" style="endArrow=classic;html=1;" parent="1" target="342" edge="1">
                    <mxGeometry relative="1" as="geometry">
                        <mxPoint x="2290.5" y="3869.5" as="sourcePoint"/>
                        <mxPoint x="2467.5" y="3869.5" as="targetPoint"/>
                    </mxGeometry>
                </mxCell>
                <mxCell id="357" value="onKeyPress()" style="edgeLabel;resizable=0;html=1;;align=center;verticalAlign=middle;" parent="356" connectable="0" vertex="1">
                    <mxGeometry relative="1" as="geometry"/>
                </mxCell>
                <mxCell id="358" value="Build Table Design Mode View" style="html=1;align=left;spacingLeft=2;endArrow=block;rounded=0;edgeStyle=orthogonalEdgeStyle;curved=0;rounded=0;strokeWidth=2;startArrow=oval;startFill=1;" parent="1" edge="1">
                    <mxGeometry x="-0.0035" relative="1" as="geometry">
                        <mxPoint x="2487.5" y="3885" as="sourcePoint"/>
                        <Array as="points">
                            <mxPoint x="2517.5" y="3915"/>
                        </Array>
                        <mxPoint x="2492.5" y="3915" as="targetPoint"/>
                        <mxPoint as="offset"/>
                    </mxGeometry>
                </mxCell>
                <mxCell id="359" value="" style="endArrow=none;dashed=1;html=1;" parent="1" edge="1">
                    <mxGeometry width="50" height="50" relative="1" as="geometry">
                        <mxPoint x="2112.5" y="4105" as="sourcePoint"/>
                        <mxPoint x="2112" y="3725" as="targetPoint"/>
                    </mxGeometry>
                </mxCell>
                <mxCell id="360" value="" style="endArrow=classic;html=1;" parent="1" edge="1">
                    <mxGeometry relative="1" as="geometry">
                        <mxPoint x="2117.5" y="3945" as="sourcePoint"/>
                        <mxPoint x="2294.5" y="3945" as="targetPoint"/>
                    </mxGeometry>
                </mxCell>
                <mxCell id="361" value="press enter or click outside table" style="edgeLabel;resizable=0;html=1;;align=center;verticalAlign=middle;" parent="360" connectable="0" vertex="1">
                    <mxGeometry relative="1" as="geometry"/>
                </mxCell>
                <mxCell id="362" value="Register Click" style="html=1;verticalAlign=bottom;startArrow=oval;startFill=1;endArrow=block;startSize=8;curved=0;rounded=0;strokeWidth=2;" parent="1" edge="1">
                    <mxGeometry width="60" relative="1" as="geometry">
                        <mxPoint x="2297.5" y="3955" as="sourcePoint"/>
                        <mxPoint x="2484.5" y="3955" as="targetPoint"/>
                    </mxGeometry>
                </mxCell>
                <mxCell id="363" value="" style="endArrow=classic;html=1;" parent="1" target="342" edge="1">
                    <mxGeometry relative="1" as="geometry">
                        <mxPoint x="2297.5" y="3975" as="sourcePoint"/>
                        <mxPoint x="2491.5" y="3975.5" as="targetPoint"/>
                    </mxGeometry>
                </mxCell>
                <mxCell id="364" value="onKeyPress()" style="edgeLabel;resizable=0;html=1;;align=center;verticalAlign=middle;" parent="363" connectable="0" vertex="1">
                    <mxGeometry relative="1" as="geometry"/>
                </mxCell>
                <mxCell id="365" value="setEditable()" style="html=1;align=left;spacingLeft=2;endArrow=block;rounded=0;edgeStyle=orthogonalEdgeStyle;curved=0;rounded=0;" parent="1" edge="1">
                    <mxGeometry relative="1" as="geometry">
                        <mxPoint x="2487.5" y="4008" as="sourcePoint"/>
                        <Array as="points">
                            <mxPoint x="2517.5" y="4038"/>
                        </Array>
                        <mxPoint x="2492.5" y="4038" as="targetPoint"/>
                    </mxGeometry>
                </mxCell>
                <mxCell id="366" value="Database" style="shape=umlLifeline;perimeter=lifelinePerimeter;whiteSpace=wrap;html=1;container=1;dropTarget=0;collapsible=0;recursiveResize=0;outlineConnect=0;portConstraint=eastwest;newEdgeStyle={&quot;curved&quot;:0,&quot;rounded&quot;:0};" parent="1" vertex="1">
                    <mxGeometry x="3047.5" y="3645" width="155" height="605" as="geometry"/>
                </mxCell>
                <mxCell id="367" value="" style="endArrow=classic;html=1;" parent="1" edge="1">
                    <mxGeometry relative="1" as="geometry">
                        <mxPoint x="2487.5" y="4058" as="sourcePoint"/>
                        <mxPoint x="3124.5" y="4057.999999999999" as="targetPoint"/>
                    </mxGeometry>
                </mxCell>
                <mxCell id="368" value="editColumnName()" style="edgeLabel;resizable=0;html=1;;align=center;verticalAlign=middle;" parent="367" connectable="0" vertex="1">
                    <mxGeometry relative="1" as="geometry"/>
                </mxCell>
                <mxCell id="369" value="Build Table Design Mode View" style="html=1;align=left;spacingLeft=2;endArrow=block;rounded=0;edgeStyle=orthogonalEdgeStyle;curved=0;rounded=0;strokeWidth=2;startArrow=oval;startFill=1;" parent="1" edge="1">
                    <mxGeometry x="0.0084" relative="1" as="geometry">
                        <mxPoint x="2487.5" y="4088" as="sourcePoint"/>
                        <Array as="points">
                            <mxPoint x="2517.5" y="4118"/>
                        </Array>
                        <mxPoint x="2492.5" y="4118" as="targetPoint"/>
                        <mxPoint as="offset"/>
                    </mxGeometry>
                </mxCell>
                <mxCell id="370" value="Table" style="shape=umlLifeline;perimeter=lifelinePerimeter;whiteSpace=wrap;html=1;container=1;dropTarget=0;collapsible=0;recursiveResize=0;outlineConnect=0;portConstraint=eastwest;newEdgeStyle={&quot;curved&quot;:0,&quot;rounded&quot;:0};" parent="1" vertex="1">
                    <mxGeometry x="3247.5" y="3645" width="155" height="605" as="geometry"/>
                </mxCell>
                <mxCell id="371" value="" style="endArrow=classic;html=1;" parent="1" edge="1">
                    <mxGeometry relative="1" as="geometry">
                        <mxPoint x="3127.500434782609" y="4068" as="sourcePoint"/>
                        <mxPoint x="3324.5" y="4067.999999999999" as="targetPoint"/>
                    </mxGeometry>
                </mxCell>
                <mxCell id="372" value="editColumnName()" style="edgeLabel;resizable=0;html=1;;align=center;verticalAlign=middle;" parent="371" connectable="0" vertex="1">
                    <mxGeometry relative="1" as="geometry"/>
                </mxCell>
                <mxCell id="374" value="Build Tables Mode View" style="html=1;align=left;spacingLeft=2;endArrow=block;rounded=0;edgeStyle=orthogonalEdgeStyle;curved=0;rounded=0;strokeWidth=2;startArrow=oval;startFill=1;" parent="1" edge="1">
                    <mxGeometry x="-0.0035" relative="1" as="geometry">
                        <mxPoint x="540.5" y="1700.0000000000002" as="sourcePoint"/>
                        <Array as="points">
                            <mxPoint x="570.5" y="1730.0000000000002"/>
                        </Array>
                        <mxPoint x="545.5" y="1730.0000000000002" as="targetPoint"/>
                        <mxPoint as="offset"/>
                    </mxGeometry>
                </mxCell>
                <mxCell id="375" value="Paint Aplication" style="html=1;verticalAlign=bottom;startArrow=oval;startFill=1;endArrow=open;startSize=6;endSize=8;curved=0;rounded=0;strokeWidth=2;" parent="1" edge="1">
                    <mxGeometry width="80" relative="1" as="geometry">
                        <mxPoint x="540.630000000001" y="1750.0000000000002" as="sourcePoint"/>
                        <mxPoint x="347.6304347826085" y="1750.0000000000002" as="targetPoint"/>
                    </mxGeometry>
                </mxCell>
                <mxCell id="376" value="Paint Aplication" style="html=1;verticalAlign=bottom;startArrow=oval;startFill=1;endArrow=open;startSize=6;endSize=8;curved=0;rounded=0;strokeWidth=2;" parent="1" edge="1">
                    <mxGeometry width="80" relative="1" as="geometry">
                        <mxPoint x="2480.63" y="4128" as="sourcePoint"/>
                        <mxPoint x="2294.323529411765" y="4127.999999999999" as="targetPoint"/>
                    </mxGeometry>
                </mxCell>
                <mxCell id="393" value="" style="endArrow=classic;html=1;" parent="1" target="121" edge="1">
                    <mxGeometry relative="1" as="geometry">
                        <mxPoint x="1530" y="950" as="sourcePoint"/>
                        <mxPoint x="1707" y="950" as="targetPoint"/>
                    </mxGeometry>
                </mxCell>
                <mxCell id="394" value="onKeyPress()" style="edgeLabel;resizable=0;html=1;;align=center;verticalAlign=middle;" parent="393" connectable="0" vertex="1">
                    <mxGeometry relative="1" as="geometry"/>
                </mxCell>
                <mxCell id="396" value="Database" style="shape=umlLifeline;perimeter=lifelinePerimeter;whiteSpace=wrap;html=1;container=1;dropTarget=0;collapsible=0;recursiveResize=0;outlineConnect=0;portConstraint=eastwest;newEdgeStyle={&quot;curved&quot;:0,&quot;rounded&quot;:0};" parent="1" vertex="1">
                    <mxGeometry x="2250" y="800" width="155" height="220" as="geometry"/>
                </mxCell>
                <mxCell id="397" value="" style="endArrow=classic;html=1;" parent="1" edge="1">
                    <mxGeometry relative="1" as="geometry">
                        <mxPoint x="2130.000434782609" y="960.29" as="sourcePoint"/>
                        <mxPoint x="2324.869999999999" y="960" as="targetPoint"/>
                    </mxGeometry>
                </mxCell>
                <mxCell id="398" value="deleteTable()" style="edgeLabel;resizable=0;html=1;;align=center;verticalAlign=middle;" parent="397" connectable="0" vertex="1">
                    <mxGeometry relative="1" as="geometry"/>
                </mxCell>
                <mxCell id="399" value="Build Tables Mode View" style="html=1;align=left;spacingLeft=2;endArrow=block;rounded=0;edgeStyle=orthogonalEdgeStyle;curved=0;rounded=0;strokeWidth=2;startArrow=oval;startFill=1;" parent="1" edge="1">
                    <mxGeometry x="-0.0035" relative="1" as="geometry">
                        <mxPoint x="2130" y="980" as="sourcePoint"/>
                        <Array as="points">
                            <mxPoint x="2160" y="1010"/>
                        </Array>
                        <mxPoint x="2135" y="1010" as="targetPoint"/>
                        <mxPoint as="offset"/>
                    </mxGeometry>
                </mxCell>
                <mxCell id="400" value="Paint Aplication" style="html=1;verticalAlign=bottom;startArrow=oval;startFill=1;endArrow=open;startSize=6;endSize=8;curved=0;rounded=0;strokeWidth=2;" parent="1" target="124" edge="1">
                    <mxGeometry width="80" relative="1" as="geometry">
                        <mxPoint x="2120.130000000001" y="1018.5699999999997" as="sourcePoint"/>
                        <mxPoint x="1927" y="1018.5699999999997" as="targetPoint"/>
                    </mxGeometry>
                </mxCell>
                <mxCell id="401" value="Actor" style="shape=umlActor;verticalLabelPosition=bottom;verticalAlign=top;html=1;" parent="1" vertex="1">
                    <mxGeometry x="1827.5" y="3115" width="30" height="60" as="geometry"/>
                </mxCell>
                <mxCell id="402" value="CheckBox" style="shape=umlLifeline;perimeter=lifelinePerimeter;whiteSpace=wrap;html=1;container=1;dropTarget=0;collapsible=0;recursiveResize=0;outlineConnect=0;portConstraint=eastwest;newEdgeStyle={&quot;curved&quot;:0,&quot;rounded&quot;:0};" parent="1" vertex="1">
                    <mxGeometry x="2137.5" y="3125" width="155" height="285" as="geometry"/>
                </mxCell>
                <mxCell id="403" value="TableDesignRow" style="shape=umlLifeline;perimeter=lifelinePerimeter;whiteSpace=wrap;html=1;container=1;dropTarget=0;collapsible=0;recursiveResize=0;outlineConnect=0;portConstraint=eastwest;newEdgeStyle={&quot;curved&quot;:0,&quot;rounded&quot;:0};" parent="1" vertex="1">
                    <mxGeometry x="2347.5" y="3125" width="155" height="285" as="geometry"/>
                </mxCell>
                <mxCell id="404" value="TableDesignModeView" style="shape=umlLifeline;perimeter=lifelinePerimeter;whiteSpace=wrap;html=1;container=1;dropTarget=0;collapsible=0;recursiveResize=0;outlineConnect=0;portConstraint=eastwest;newEdgeStyle={&quot;curved&quot;:0,&quot;rounded&quot;:0};" parent="1" vertex="1">
                    <mxGeometry x="2542.5" y="3125" width="155" height="295" as="geometry"/>
                </mxCell>
                <mxCell id="405" value="" style="endArrow=none;dashed=1;html=1;" parent="1" edge="1">
                    <mxGeometry width="50" height="50" relative="1" as="geometry">
                        <mxPoint x="1841.79" y="3420" as="sourcePoint"/>
                        <mxPoint x="1842.08" y="3195" as="targetPoint"/>
                    </mxGeometry>
                </mxCell>
                <mxCell id="406" value="click on column checkbox" style="endArrow=classic;html=1;" parent="1" edge="1">
                    <mxGeometry relative="1" as="geometry">
                        <mxPoint x="1847.5" y="3205" as="sourcePoint"/>
                        <mxPoint x="2024.5" y="3205" as="targetPoint"/>
                    </mxGeometry>
                </mxCell>
                <mxCell id="407" value="ApplicationWindow" style="shape=umlLifeline;perimeter=lifelinePerimeter;whiteSpace=wrap;html=1;container=1;dropTarget=0;collapsible=0;recursiveResize=0;outlineConnect=0;portConstraint=eastwest;newEdgeStyle={&quot;curved&quot;:0,&quot;rounded&quot;:0};" parent="1" vertex="1">
                    <mxGeometry x="1947.5" y="3125" width="155" height="295" as="geometry"/>
                </mxCell>
                <mxCell id="408" value="Register Click" style="html=1;verticalAlign=bottom;startArrow=oval;startFill=1;endArrow=block;startSize=8;curved=0;rounded=0;strokeWidth=2;" parent="1" target="402" edge="1">
                    <mxGeometry width="60" relative="1" as="geometry">
                        <mxPoint x="2027.5" y="3215" as="sourcePoint"/>
                        <mxPoint x="2087.5" y="3215" as="targetPoint"/>
                    </mxGeometry>
                </mxCell>
                <mxCell id="409" value="Use Case: Delete Column" style="shape=umlFrame;whiteSpace=wrap;html=1;pointerEvents=0;width=160;height=30;" parent="1" vertex="1">
                    <mxGeometry x="1747.5" y="3075" width="1560" height="375" as="geometry"/>
                </mxCell>
                <mxCell id="410" value="" style="endArrow=classic;html=1;" parent="1" edge="1">
                    <mxGeometry relative="1" as="geometry">
                        <mxPoint x="2217.5015384615385" y="3225" as="sourcePoint"/>
                        <mxPoint x="2428.04" y="3225" as="targetPoint"/>
                    </mxGeometry>
                </mxCell>
                <mxCell id="411" value="onChange()" style="edgeLabel;resizable=0;html=1;;align=center;verticalAlign=middle;" parent="410" connectable="0" vertex="1">
                    <mxGeometry relative="1" as="geometry"/>
                </mxCell>
                <mxCell id="412" value="" style="endArrow=classic;html=1;" parent="1" target="404" edge="1">
                    <mxGeometry relative="1" as="geometry">
                        <mxPoint x="2424.630434782609" y="3234.29" as="sourcePoint"/>
                        <mxPoint x="2654.5" y="3234.29" as="targetPoint"/>
                    </mxGeometry>
                </mxCell>
                <mxCell id="413" value="onSelect()" style="edgeLabel;resizable=0;html=1;;align=center;verticalAlign=middle;" parent="412" connectable="0" vertex="1">
                    <mxGeometry relative="1" as="geometry"/>
                </mxCell>
                <mxCell id="414" value="" style="endArrow=classic;html=1;" parent="1" edge="1">
                    <mxGeometry relative="1" as="geometry">
                        <mxPoint x="1842.5" y="3265" as="sourcePoint"/>
                        <mxPoint x="2019.5" y="3265" as="targetPoint"/>
                    </mxGeometry>
                </mxCell>
                <mxCell id="415" value="press delete" style="edgeLabel;resizable=0;html=1;;align=center;verticalAlign=middle;" parent="414" connectable="0" vertex="1">
                    <mxGeometry relative="1" as="geometry"/>
                </mxCell>
                <mxCell id="416" value="" style="endArrow=classic;html=1;" parent="1" target="404" edge="1">
                    <mxGeometry relative="1" as="geometry">
                        <mxPoint x="2022.5" y="3275" as="sourcePoint"/>
                        <mxPoint x="2199.5" y="3275" as="targetPoint"/>
                    </mxGeometry>
                </mxCell>
                <mxCell id="417" value="onKeyPress()" style="edgeLabel;resizable=0;html=1;;align=center;verticalAlign=middle;" parent="416" connectable="0" vertex="1">
                    <mxGeometry relative="1" as="geometry"/>
                </mxCell>
                <mxCell id="418" value="Database" style="shape=umlLifeline;perimeter=lifelinePerimeter;whiteSpace=wrap;html=1;container=1;dropTarget=0;collapsible=0;recursiveResize=0;outlineConnect=0;portConstraint=eastwest;newEdgeStyle={&quot;curved&quot;:0,&quot;rounded&quot;:0};" parent="1" vertex="1">
                    <mxGeometry x="2742.5" y="3125" width="155" height="295" as="geometry"/>
                </mxCell>
                <mxCell id="419" value="" style="endArrow=classic;html=1;" parent="1" edge="1">
                    <mxGeometry relative="1" as="geometry">
                        <mxPoint x="2622.500434782609" y="3285.29" as="sourcePoint"/>
                        <mxPoint x="2817.37" y="3285" as="targetPoint"/>
                    </mxGeometry>
                </mxCell>
                <mxCell id="420" value="deleteColumn()" style="edgeLabel;resizable=0;html=1;;align=center;verticalAlign=middle;" parent="419" connectable="0" vertex="1">
                    <mxGeometry relative="1" as="geometry"/>
                </mxCell>
                <mxCell id="421" value="Build Table Design Mode View" style="html=1;align=left;spacingLeft=2;endArrow=block;rounded=0;edgeStyle=orthogonalEdgeStyle;curved=0;rounded=0;strokeWidth=2;startArrow=oval;startFill=1;" parent="1" edge="1">
                    <mxGeometry x="-0.0035" relative="1" as="geometry">
                        <mxPoint x="2622.5" y="3345" as="sourcePoint"/>
                        <Array as="points">
                            <mxPoint x="2652.5" y="3375"/>
                        </Array>
                        <mxPoint x="2627.5" y="3375" as="targetPoint"/>
                        <mxPoint as="offset"/>
                    </mxGeometry>
                </mxCell>
                <mxCell id="422" value="Paint Aplication" style="html=1;verticalAlign=bottom;startArrow=oval;startFill=1;endArrow=open;startSize=6;endSize=8;curved=0;rounded=0;strokeWidth=2;" parent="1" edge="1">
                    <mxGeometry width="80" relative="1" as="geometry">
                        <mxPoint x="2616.06" y="3390" as="sourcePoint"/>
                        <mxPoint x="2027.5014285714283" y="3389.999999999999" as="targetPoint"/>
                    </mxGeometry>
                </mxCell>
                <mxCell id="423" value="Table" style="shape=umlLifeline;perimeter=lifelinePerimeter;whiteSpace=wrap;html=1;container=1;dropTarget=0;collapsible=0;recursiveResize=0;outlineConnect=0;portConstraint=eastwest;newEdgeStyle={&quot;curved&quot;:0,&quot;rounded&quot;:0};" parent="1" vertex="1">
                    <mxGeometry x="2932.5" y="3125" width="155" height="295" as="geometry"/>
                </mxCell>
                <mxCell id="424" value="" style="endArrow=classic;html=1;" parent="1" edge="1">
                    <mxGeometry relative="1" as="geometry">
                        <mxPoint x="2817.500434782609" y="3290.29" as="sourcePoint"/>
                        <mxPoint x="3012.37" y="3290" as="targetPoint"/>
                    </mxGeometry>
                </mxCell>
                <mxCell id="425" value="deleteColumn()" style="edgeLabel;resizable=0;html=1;;align=center;verticalAlign=middle;" parent="424" connectable="0" vertex="1">
                    <mxGeometry relative="1" as="geometry"/>
                </mxCell>
                <mxCell id="426" value="Row" style="shape=umlLifeline;perimeter=lifelinePerimeter;whiteSpace=wrap;html=1;container=1;dropTarget=0;collapsible=0;recursiveResize=0;outlineConnect=0;portConstraint=eastwest;newEdgeStyle={&quot;curved&quot;:0,&quot;rounded&quot;:0};" parent="1" vertex="1">
                    <mxGeometry x="3117.5" y="3125" width="155" height="295" as="geometry"/>
                </mxCell>
                <mxCell id="427" value="Loop" style="shape=umlFrame;whiteSpace=wrap;html=1;pointerEvents=0;width=48;height=15;" parent="1" vertex="1">
                    <mxGeometry x="2957.5" y="3300" width="250" height="30" as="geometry"/>
                </mxCell>
                <mxCell id="429" value="" style="endArrow=classic;html=1;" parent="1" edge="1">
                    <mxGeometry relative="1" as="geometry">
                        <mxPoint x="3000.5014285714287" y="3314.289999999999" as="sourcePoint"/>
                        <mxPoint x="3187.5" y="3314.289999999999" as="targetPoint"/>
                    </mxGeometry>
                </mxCell>
                <mxCell id="430" value="deleteCell()" style="edgeLabel;resizable=0;html=1;;align=center;verticalAlign=middle;" parent="429" connectable="0" vertex="1">
                    <mxGeometry relative="1" as="geometry"/>
                </mxCell>
                <mxCell id="431" value="Actor" style="shape=umlActor;verticalLabelPosition=bottom;verticalAlign=top;html=1;" parent="1" vertex="1">
                    <mxGeometry x="1397.5" y="2525" width="30" height="60" as="geometry"/>
                </mxCell>
                <mxCell id="432" value="Button" style="shape=umlLifeline;perimeter=lifelinePerimeter;whiteSpace=wrap;html=1;container=1;dropTarget=0;collapsible=0;recursiveResize=0;outlineConnect=0;portConstraint=eastwest;newEdgeStyle={&quot;curved&quot;:0,&quot;rounded&quot;:0};" parent="1" vertex="1">
                    <mxGeometry x="1707.5" y="2535" width="155" height="290" as="geometry"/>
                </mxCell>
                <mxCell id="433" value="TableDesignRow" style="shape=umlLifeline;perimeter=lifelinePerimeter;whiteSpace=wrap;html=1;container=1;dropTarget=0;collapsible=0;recursiveResize=0;outlineConnect=0;portConstraint=eastwest;newEdgeStyle={&quot;curved&quot;:0,&quot;rounded&quot;:0};" parent="1" vertex="1">
                    <mxGeometry x="1917.5" y="2535" width="155" height="290" as="geometry"/>
                </mxCell>
                <mxCell id="434" value="Database" style="shape=umlLifeline;perimeter=lifelinePerimeter;whiteSpace=wrap;html=1;container=1;dropTarget=0;collapsible=0;recursiveResize=0;outlineConnect=0;portConstraint=eastwest;newEdgeStyle={&quot;curved&quot;:0,&quot;rounded&quot;:0};" parent="1" vertex="1">
                    <mxGeometry x="2147.5" y="2535" width="155" height="290" as="geometry"/>
                </mxCell>
                <mxCell id="435" value="click on column type" style="endArrow=classic;html=1;" parent="1" edge="1">
                    <mxGeometry relative="1" as="geometry">
                        <mxPoint x="1417.5" y="2615" as="sourcePoint"/>
                        <mxPoint x="1594.5" y="2615" as="targetPoint"/>
                    </mxGeometry>
                </mxCell>
                <mxCell id="436" value="ApplicationWindow" style="shape=umlLifeline;perimeter=lifelinePerimeter;whiteSpace=wrap;html=1;container=1;dropTarget=0;collapsible=0;recursiveResize=0;outlineConnect=0;portConstraint=eastwest;newEdgeStyle={&quot;curved&quot;:0,&quot;rounded&quot;:0};" parent="1" vertex="1">
                    <mxGeometry x="1517.5" y="2535" width="155" height="290" as="geometry"/>
                </mxCell>
                <mxCell id="437" value="Register Click" style="html=1;verticalAlign=bottom;startArrow=oval;startFill=1;endArrow=block;startSize=8;curved=0;rounded=0;strokeWidth=2;" parent="1" target="432" edge="1">
                    <mxGeometry width="60" relative="1" as="geometry">
                        <mxPoint x="1597.5" y="2625" as="sourcePoint"/>
                        <mxPoint x="1657.5" y="2625" as="targetPoint"/>
                    </mxGeometry>
                </mxCell>
                <mxCell id="438" value="Use Case: Edit Column Type" style="shape=umlFrame;whiteSpace=wrap;html=1;pointerEvents=0;width=180;height=30;" parent="1" vertex="1">
                    <mxGeometry x="1317.5" y="2485" width="1580" height="370" as="geometry"/>
                </mxCell>
                <mxCell id="440" value="" style="endArrow=classic;html=1;" parent="1" edge="1">
                    <mxGeometry relative="1" as="geometry">
                        <mxPoint x="1783.9615384615386" y="2635" as="sourcePoint"/>
                        <mxPoint x="1994.5" y="2635" as="targetPoint"/>
                    </mxGeometry>
                </mxCell>
                <mxCell id="441" value="setState()" style="edgeLabel;resizable=0;html=1;;align=center;verticalAlign=middle;" parent="440" connectable="0" vertex="1">
                    <mxGeometry relative="1" as="geometry"/>
                </mxCell>
                <mxCell id="442" value="" style="endArrow=classic;html=1;" parent="1" edge="1">
                    <mxGeometry relative="1" as="geometry">
                        <mxPoint x="1992.5604347826088" y="2645" as="sourcePoint"/>
                        <mxPoint x="2222.43" y="2645" as="targetPoint"/>
                    </mxGeometry>
                </mxCell>
                <mxCell id="443" value="toggleColumnType()" style="edgeLabel;resizable=0;html=1;;align=center;verticalAlign=middle;" parent="442" connectable="0" vertex="1">
                    <mxGeometry relative="1" as="geometry"/>
                </mxCell>
                <mxCell id="449" value="" style="endArrow=none;dashed=1;html=1;" parent="1" edge="1">
                    <mxGeometry width="50" height="50" relative="1" as="geometry">
                        <mxPoint x="1412.5" y="2825" as="sourcePoint"/>
                        <mxPoint x="1412" y="2615" as="targetPoint"/>
                    </mxGeometry>
                </mxCell>
                <mxCell id="456" value="Table" style="shape=umlLifeline;perimeter=lifelinePerimeter;whiteSpace=wrap;html=1;container=1;dropTarget=0;collapsible=0;recursiveResize=0;outlineConnect=0;portConstraint=eastwest;newEdgeStyle={&quot;curved&quot;:0,&quot;rounded&quot;:0};" parent="1" vertex="1">
                    <mxGeometry x="2347.5" y="2535" width="155" height="300" as="geometry"/>
                </mxCell>
                <mxCell id="460" value="Column" style="shape=umlLifeline;perimeter=lifelinePerimeter;whiteSpace=wrap;html=1;container=1;dropTarget=0;collapsible=0;recursiveResize=0;outlineConnect=0;portConstraint=eastwest;newEdgeStyle={&quot;curved&quot;:0,&quot;rounded&quot;:0};" parent="1" vertex="1">
                    <mxGeometry x="2547.5" y="2535" width="155" height="300" as="geometry"/>
                </mxCell>
                <mxCell id="464" value="" style="endArrow=classic;html=1;" parent="1" edge="1">
                    <mxGeometry relative="1" as="geometry">
                        <mxPoint x="2224.0714285714284" y="2654.999999999999" as="sourcePoint"/>
                        <mxPoint x="2424.5" y="2654.999999999999" as="targetPoint"/>
                    </mxGeometry>
                </mxCell>
                <mxCell id="465" value="toggleColumnType()" style="edgeLabel;resizable=0;html=1;;align=center;verticalAlign=middle;" parent="464" connectable="0" vertex="1">
                    <mxGeometry relative="1" as="geometry"/>
                </mxCell>
                <mxCell id="466" value="" style="endArrow=classic;html=1;" parent="1" edge="1">
                    <mxGeometry relative="1" as="geometry">
                        <mxPoint x="2427.5014285714283" y="2664.999999999999" as="sourcePoint"/>
                        <mxPoint x="2627.93" y="2664.999999999999" as="targetPoint"/>
                    </mxGeometry>
                </mxCell>
                <mxCell id="467" value="toggleColumnType()" style="edgeLabel;resizable=0;html=1;;align=center;verticalAlign=middle;" parent="466" connectable="0" vertex="1">
                    <mxGeometry relative="1" as="geometry"/>
                </mxCell>
                <mxCell id="468" value="updateColumnType()" style="html=1;align=left;spacingLeft=2;endArrow=block;rounded=0;edgeStyle=orthogonalEdgeStyle;curved=0;rounded=0;" parent="1" edge="1">
                    <mxGeometry relative="1" as="geometry">
                        <mxPoint x="2627.5" y="2675" as="sourcePoint"/>
                        <Array as="points">
                            <mxPoint x="2657.5" y="2705"/>
                        </Array>
                        <mxPoint x="2632.5" y="2705" as="targetPoint"/>
                        <mxPoint as="offset"/>
                    </mxGeometry>
                </mxCell>
                <mxCell id="469" value="Build Table Design Mode View" style="html=1;align=left;spacingLeft=2;endArrow=block;rounded=0;edgeStyle=orthogonalEdgeStyle;curved=0;rounded=0;strokeWidth=2;startArrow=oval;startFill=1;" parent="1" edge="1">
                    <mxGeometry x="-0.0035" relative="1" as="geometry">
                        <mxPoint x="2000" y="2759.46" as="sourcePoint"/>
                        <Array as="points">
                            <mxPoint x="2030" y="2789.46"/>
                        </Array>
                        <mxPoint x="2005" y="2789.46" as="targetPoint"/>
                        <mxPoint as="offset"/>
                    </mxGeometry>
                </mxCell>
                <mxCell id="470" value="Paint Aplication" style="html=1;verticalAlign=bottom;startArrow=oval;startFill=1;endArrow=open;startSize=6;endSize=8;curved=0;rounded=0;strokeWidth=2;" parent="1" edge="1">
                    <mxGeometry width="80" relative="1" as="geometry">
                        <mxPoint x="1996.13" y="2808.75" as="sourcePoint"/>
                        <mxPoint x="1596.75" y="2808.75" as="targetPoint"/>
                    </mxGeometry>
                </mxCell>
                <mxCell id="471" value="Actor" style="shape=umlActor;verticalLabelPosition=bottom;verticalAlign=top;html=1;" parent="1" vertex="1">
                    <mxGeometry x="67.5" y="2525" width="30" height="60" as="geometry"/>
                </mxCell>
                <mxCell id="472" value="Checkbox" style="shape=umlLifeline;perimeter=lifelinePerimeter;whiteSpace=wrap;html=1;container=1;dropTarget=0;collapsible=0;recursiveResize=0;outlineConnect=0;portConstraint=eastwest;newEdgeStyle={&quot;curved&quot;:0,&quot;rounded&quot;:0};" parent="1" vertex="1">
                    <mxGeometry x="377.5" y="2535" width="155" height="275" as="geometry"/>
                </mxCell>
                <mxCell id="474" value="Database" style="shape=umlLifeline;perimeter=lifelinePerimeter;whiteSpace=wrap;html=1;container=1;dropTarget=0;collapsible=0;recursiveResize=0;outlineConnect=0;portConstraint=eastwest;newEdgeStyle={&quot;curved&quot;:0,&quot;rounded&quot;:0};" parent="1" vertex="1">
                    <mxGeometry x="567.5" y="2535" width="155" height="275" as="geometry"/>
                </mxCell>
                <mxCell id="475" value="click on column checkbox" style="endArrow=classic;html=1;" parent="1" edge="1">
                    <mxGeometry relative="1" as="geometry">
                        <mxPoint x="87.5" y="2615" as="sourcePoint"/>
                        <mxPoint x="264.5" y="2615" as="targetPoint"/>
                    </mxGeometry>
                </mxCell>
                <mxCell id="476" value="ApplicationWindow" style="shape=umlLifeline;perimeter=lifelinePerimeter;whiteSpace=wrap;html=1;container=1;dropTarget=0;collapsible=0;recursiveResize=0;outlineConnect=0;portConstraint=eastwest;newEdgeStyle={&quot;curved&quot;:0,&quot;rounded&quot;:0};" parent="1" vertex="1">
                    <mxGeometry x="187.5" y="2535" width="155" height="275" as="geometry"/>
                </mxCell>
                <mxCell id="477" value="Register Click" style="html=1;verticalAlign=bottom;startArrow=oval;startFill=1;endArrow=block;startSize=8;curved=0;rounded=0;strokeWidth=2;" parent="1" target="472" edge="1">
                    <mxGeometry width="60" relative="1" as="geometry">
                        <mxPoint x="267.5" y="2625" as="sourcePoint"/>
                        <mxPoint x="327.5" y="2625" as="targetPoint"/>
                    </mxGeometry>
                </mxCell>
                <mxCell id="478" value="Use Case: Edit Column Allow Blank" style="shape=umlFrame;whiteSpace=wrap;html=1;pointerEvents=0;width=200;height=30;" parent="1" vertex="1">
                    <mxGeometry x="-12.5" y="2485" width="1190" height="335" as="geometry"/>
                </mxCell>
                <mxCell id="483" value="" style="endArrow=none;dashed=1;html=1;" parent="1" edge="1">
                    <mxGeometry width="50" height="50" relative="1" as="geometry">
                        <mxPoint x="82.5" y="2745" as="sourcePoint"/>
                        <mxPoint x="82" y="2615" as="targetPoint"/>
                    </mxGeometry>
                </mxCell>
                <mxCell id="484" value="Table" style="shape=umlLifeline;perimeter=lifelinePerimeter;whiteSpace=wrap;html=1;container=1;dropTarget=0;collapsible=0;recursiveResize=0;outlineConnect=0;portConstraint=eastwest;newEdgeStyle={&quot;curved&quot;:0,&quot;rounded&quot;:0};" parent="1" vertex="1">
                    <mxGeometry x="767.5" y="2535" width="155" height="275" as="geometry"/>
                </mxCell>
                <mxCell id="485" value="Column" style="shape=umlLifeline;perimeter=lifelinePerimeter;whiteSpace=wrap;html=1;container=1;dropTarget=0;collapsible=0;recursiveResize=0;outlineConnect=0;portConstraint=eastwest;newEdgeStyle={&quot;curved&quot;:0,&quot;rounded&quot;:0};" parent="1" vertex="1">
                    <mxGeometry x="967.5" y="2535" width="155" height="275" as="geometry"/>
                </mxCell>
                <mxCell id="486" value="" style="endArrow=classic;html=1;" parent="1" edge="1">
                    <mxGeometry relative="1" as="geometry">
                        <mxPoint x="641.5714285714284" y="2679.999999999999" as="sourcePoint"/>
                        <mxPoint x="842" y="2679.999999999999" as="targetPoint"/>
                    </mxGeometry>
                </mxCell>
                <mxCell id="487" value="setColumnAllowBlank()" style="edgeLabel;resizable=0;html=1;;align=center;verticalAlign=middle;" parent="486" connectable="0" vertex="1">
                    <mxGeometry relative="1" as="geometry"/>
                </mxCell>
                <mxCell id="488" value="" style="endArrow=classic;html=1;" parent="1" edge="1">
                    <mxGeometry relative="1" as="geometry">
                        <mxPoint x="845.0014285714283" y="2689.999999999999" as="sourcePoint"/>
                        <mxPoint x="1045.4299999999998" y="2689.999999999999" as="targetPoint"/>
                    </mxGeometry>
                </mxCell>
                <mxCell id="489" value="setAllowBlank()" style="edgeLabel;resizable=0;html=1;;align=center;verticalAlign=middle;" parent="488" connectable="0" vertex="1">
                    <mxGeometry relative="1" as="geometry"/>
                </mxCell>
                <mxCell id="493" value="setColumnAllowBlank()" style="endArrow=classic;html=1;" parent="1" edge="1">
                    <mxGeometry relative="1" as="geometry">
                        <mxPoint x="455" y="2670" as="sourcePoint"/>
                        <mxPoint x="642" y="2670" as="targetPoint"/>
                    </mxGeometry>
                </mxCell>
                <mxCell id="494" value="Actor" style="shape=umlActor;verticalLabelPosition=bottom;verticalAlign=top;html=1;" parent="1" vertex="1">
                    <mxGeometry x="47.5" y="3635" width="30" height="60" as="geometry"/>
                </mxCell>
                <mxCell id="495" value="ValueCell" style="shape=umlLifeline;perimeter=lifelinePerimeter;whiteSpace=wrap;html=1;container=1;dropTarget=0;collapsible=0;recursiveResize=0;outlineConnect=0;portConstraint=eastwest;newEdgeStyle={&quot;curved&quot;:0,&quot;rounded&quot;:0};" parent="1" vertex="1">
                    <mxGeometry x="377.5" y="3645" width="155" height="695" as="geometry"/>
                </mxCell>
                <mxCell id="496" value="ClickEventController" style="shape=umlLifeline;perimeter=lifelinePerimeter;whiteSpace=wrap;html=1;container=1;dropTarget=0;collapsible=0;recursiveResize=0;outlineConnect=0;portConstraint=eastwest;newEdgeStyle={&quot;curved&quot;:0,&quot;rounded&quot;:0};" parent="1" vertex="1">
                    <mxGeometry x="587.5" y="3645" width="155" height="695" as="geometry"/>
                </mxCell>
                <mxCell id="497" value="KeyEventController" style="shape=umlLifeline;perimeter=lifelinePerimeter;whiteSpace=wrap;html=1;container=1;dropTarget=0;collapsible=0;recursiveResize=0;outlineConnect=0;portConstraint=eastwest;newEdgeStyle={&quot;curved&quot;:0,&quot;rounded&quot;:0};" parent="1" vertex="1">
                    <mxGeometry x="817.5" y="3645" width="155" height="695" as="geometry"/>
                </mxCell>
                <mxCell id="498" value="click on column default value" style="endArrow=classic;html=1;" parent="1" edge="1">
                    <mxGeometry relative="1" as="geometry">
                        <mxPoint x="67.5" y="3725" as="sourcePoint"/>
                        <mxPoint x="264.5" y="3725" as="targetPoint"/>
                    </mxGeometry>
                </mxCell>
                <mxCell id="499" value="ApplicationWindow" style="shape=umlLifeline;perimeter=lifelinePerimeter;whiteSpace=wrap;html=1;container=1;dropTarget=0;collapsible=0;recursiveResize=0;outlineConnect=0;portConstraint=eastwest;newEdgeStyle={&quot;curved&quot;:0,&quot;rounded&quot;:0};" parent="1" vertex="1">
                    <mxGeometry x="187.5" y="3645" width="155" height="695" as="geometry"/>
                </mxCell>
                <mxCell id="500" value="Register Click" style="html=1;verticalAlign=bottom;startArrow=oval;startFill=1;endArrow=block;startSize=8;curved=0;rounded=0;strokeWidth=2;" parent="1" target="495" edge="1">
                    <mxGeometry width="60" relative="1" as="geometry">
                        <mxPoint x="267.5" y="3735" as="sourcePoint"/>
                        <mxPoint x="327.5" y="3735" as="targetPoint"/>
                    </mxGeometry>
                </mxCell>
                <mxCell id="501" value="Use Case: Edit Column Default Value" style="shape=umlFrame;whiteSpace=wrap;html=1;pointerEvents=0;width=230;height=30;" parent="1" vertex="1">
                    <mxGeometry x="-12.5" y="3595" width="1897.5" height="785" as="geometry"/>
                </mxCell>
                <mxCell id="502" value="setEditable()" style="html=1;align=left;spacingLeft=2;endArrow=block;rounded=0;edgeStyle=orthogonalEdgeStyle;curved=0;rounded=0;" parent="1" edge="1">
                    <mxGeometry relative="1" as="geometry">
                        <mxPoint x="457.5" y="3745" as="sourcePoint"/>
                        <Array as="points">
                            <mxPoint x="487.5" y="3775"/>
                        </Array>
                        <mxPoint x="462.5" y="3775" as="targetPoint"/>
                    </mxGeometry>
                </mxCell>
                <mxCell id="503" value="" style="endArrow=classic;html=1;" parent="1" edge="1">
                    <mxGeometry relative="1" as="geometry">
                        <mxPoint x="453.96153846153857" y="3795" as="sourcePoint"/>
                        <mxPoint x="664.5" y="3795" as="targetPoint"/>
                    </mxGeometry>
                </mxCell>
                <mxCell id="504" value="setClickHandler()" style="edgeLabel;resizable=0;html=1;;align=center;verticalAlign=middle;" parent="503" connectable="0" vertex="1">
                    <mxGeometry relative="1" as="geometry"/>
                </mxCell>
                <mxCell id="505" value="" style="endArrow=classic;html=1;" parent="1" edge="1">
                    <mxGeometry relative="1" as="geometry">
                        <mxPoint x="664.630434782609" y="3815" as="sourcePoint"/>
                        <mxPoint x="894.5" y="3815" as="targetPoint"/>
                    </mxGeometry>
                </mxCell>
                <mxCell id="506" value="setKeyHandler()" style="edgeLabel;resizable=0;html=1;;align=center;verticalAlign=middle;" parent="505" connectable="0" vertex="1">
                    <mxGeometry relative="1" as="geometry"/>
                </mxCell>
                <mxCell id="507" value="" style="endArrow=classic;html=1;" parent="1" edge="1">
                    <mxGeometry relative="1" as="geometry">
                        <mxPoint x="67.5" y="3855" as="sourcePoint"/>
                        <mxPoint x="264.5" y="3855" as="targetPoint"/>
                    </mxGeometry>
                </mxCell>
                <mxCell id="508" value="key presses" style="edgeLabel;resizable=0;html=1;;align=center;verticalAlign=middle;" parent="507" connectable="0" vertex="1">
                    <mxGeometry relative="1" as="geometry"/>
                </mxCell>
                <mxCell id="509" value="" style="endArrow=classic;html=1;" parent="1" target="495" edge="1">
                    <mxGeometry relative="1" as="geometry">
                        <mxPoint x="260.5" y="3869.5" as="sourcePoint"/>
                        <mxPoint x="437.5" y="3869.5" as="targetPoint"/>
                    </mxGeometry>
                </mxCell>
                <mxCell id="510" value="onKeyPress()" style="edgeLabel;resizable=0;html=1;;align=center;verticalAlign=middle;" parent="509" connectable="0" vertex="1">
                    <mxGeometry relative="1" as="geometry"/>
                </mxCell>
                <mxCell id="511" value="Build Tables Mode View" style="html=1;align=left;spacingLeft=2;endArrow=block;rounded=0;edgeStyle=orthogonalEdgeStyle;curved=0;rounded=0;strokeWidth=2;startArrow=oval;startFill=1;" parent="1" target="525" edge="1">
                    <mxGeometry x="-0.0035" relative="1" as="geometry">
                        <mxPoint x="458" y="3900" as="sourcePoint"/>
                        <Array as="points">
                            <mxPoint x="737" y="3901"/>
                        </Array>
                        <mxPoint x="1292" y="3900" as="targetPoint"/>
                        <mxPoint as="offset"/>
                    </mxGeometry>
                </mxCell>
                <mxCell id="512" value="" style="endArrow=none;dashed=1;html=1;" parent="1" edge="1">
                    <mxGeometry width="50" height="50" relative="1" as="geometry">
                        <mxPoint x="63.32999999999993" y="4320" as="sourcePoint"/>
                        <mxPoint x="63.32999999999993" y="3720" as="targetPoint"/>
                    </mxGeometry>
                </mxCell>
                <mxCell id="513" value="" style="endArrow=classic;html=1;" parent="1" edge="1">
                    <mxGeometry relative="1" as="geometry">
                        <mxPoint x="67.5" y="3945" as="sourcePoint"/>
                        <mxPoint x="264.5" y="3945" as="targetPoint"/>
                    </mxGeometry>
                </mxCell>
                <mxCell id="514" value="press enter or click outside input box" style="edgeLabel;resizable=0;html=1;;align=center;verticalAlign=middle;" parent="513" connectable="0" vertex="1">
                    <mxGeometry relative="1" as="geometry"/>
                </mxCell>
                <mxCell id="515" value="Register Click" style="html=1;verticalAlign=bottom;startArrow=oval;startFill=1;endArrow=block;startSize=8;curved=0;rounded=0;strokeWidth=2;" parent="1" edge="1">
                    <mxGeometry width="60" relative="1" as="geometry">
                        <mxPoint x="267.5" y="3955" as="sourcePoint"/>
                        <mxPoint x="454.5" y="3955" as="targetPoint"/>
                    </mxGeometry>
                </mxCell>
                <mxCell id="516" value="" style="endArrow=classic;html=1;" parent="1" target="495" edge="1">
                    <mxGeometry relative="1" as="geometry">
                        <mxPoint x="267.5" y="3975" as="sourcePoint"/>
                        <mxPoint x="461.5" y="3975.5" as="targetPoint"/>
                    </mxGeometry>
                </mxCell>
                <mxCell id="517" value="onKeyPress()" style="edgeLabel;resizable=0;html=1;;align=center;verticalAlign=middle;" parent="516" connectable="0" vertex="1">
                    <mxGeometry relative="1" as="geometry"/>
                </mxCell>
                <mxCell id="519" value="Database" style="shape=umlLifeline;perimeter=lifelinePerimeter;whiteSpace=wrap;html=1;container=1;dropTarget=0;collapsible=0;recursiveResize=0;outlineConnect=0;portConstraint=eastwest;newEdgeStyle={&quot;curved&quot;:0,&quot;rounded&quot;:0};" parent="1" vertex="1">
                    <mxGeometry x="1225" y="3645" width="155" height="695" as="geometry"/>
                </mxCell>
                <mxCell id="522" value="Build Table Design Mode View" style="html=1;align=left;spacingLeft=2;endArrow=block;rounded=0;edgeStyle=orthogonalEdgeStyle;curved=0;rounded=0;strokeWidth=2;startArrow=oval;startFill=1;" parent="1" edge="1">
                    <mxGeometry x="-0.0035" relative="1" as="geometry">
                        <mxPoint x="1092.53" y="4300" as="sourcePoint"/>
                        <Array as="points">
                            <mxPoint x="1122.53" y="4330"/>
                        </Array>
                        <mxPoint x="1097.53" y="4330" as="targetPoint"/>
                        <mxPoint as="offset"/>
                    </mxGeometry>
                </mxCell>
                <mxCell id="523" value="Paint Aplication" style="html=1;verticalAlign=bottom;startArrow=oval;startFill=1;endArrow=open;startSize=6;endSize=8;curved=0;rounded=0;strokeWidth=2;" parent="1" edge="1">
                    <mxGeometry width="80" relative="1" as="geometry">
                        <mxPoint x="1094.41" y="4338.18" as="sourcePoint"/>
                        <mxPoint x="266.24333333333396" y="4338.18" as="targetPoint"/>
                    </mxGeometry>
                </mxCell>
                <mxCell id="525" value="TableDesignRow" style="shape=umlLifeline;perimeter=lifelinePerimeter;whiteSpace=wrap;html=1;container=1;dropTarget=0;collapsible=0;recursiveResize=0;outlineConnect=0;portConstraint=eastwest;newEdgeStyle={&quot;curved&quot;:0,&quot;rounded&quot;:0};" parent="1" vertex="1">
                    <mxGeometry x="1015" y="3645" width="155" height="695" as="geometry"/>
                </mxCell>
                <mxCell id="530" value="Table" style="shape=umlLifeline;perimeter=lifelinePerimeter;whiteSpace=wrap;html=1;container=1;dropTarget=0;collapsible=0;recursiveResize=0;outlineConnect=0;portConstraint=eastwest;newEdgeStyle={&quot;curved&quot;:0,&quot;rounded&quot;:0};" parent="1" vertex="1">
                    <mxGeometry x="1425" y="3645" width="155" height="695" as="geometry"/>
                </mxCell>
                <mxCell id="533" value="Column" style="shape=umlLifeline;perimeter=lifelinePerimeter;whiteSpace=wrap;html=1;container=1;dropTarget=0;collapsible=0;recursiveResize=0;outlineConnect=0;portConstraint=eastwest;newEdgeStyle={&quot;curved&quot;:0,&quot;rounded&quot;:0};" parent="1" vertex="1">
                    <mxGeometry x="1615" y="3645" width="155" height="695" as="geometry"/>
                </mxCell>
                <mxCell id="537" value="Actor" style="shape=umlActor;verticalLabelPosition=bottom;verticalAlign=top;html=1;" parent="1" vertex="1">
                    <mxGeometry x="4215" y="1190" width="30" height="60" as="geometry"/>
                </mxCell>
                <mxCell id="538" value="InputText" style="shape=umlLifeline;perimeter=lifelinePerimeter;whiteSpace=wrap;html=1;container=1;dropTarget=0;collapsible=0;recursiveResize=0;outlineConnect=0;portConstraint=eastwest;newEdgeStyle={&quot;curved&quot;:0,&quot;rounded&quot;:0};" parent="1" vertex="1">
                    <mxGeometry x="4525" y="1200" width="155" height="620" as="geometry"/>
                </mxCell>
                <mxCell id="539" value="ClickEventController" style="shape=umlLifeline;perimeter=lifelinePerimeter;whiteSpace=wrap;html=1;container=1;dropTarget=0;collapsible=0;recursiveResize=0;outlineConnect=0;portConstraint=eastwest;newEdgeStyle={&quot;curved&quot;:0,&quot;rounded&quot;:0};" parent="1" vertex="1">
                    <mxGeometry x="4735" y="1200" width="155" height="620" as="geometry"/>
                </mxCell>
                <mxCell id="540" value="KeyEventController" style="shape=umlLifeline;perimeter=lifelinePerimeter;whiteSpace=wrap;html=1;container=1;dropTarget=0;collapsible=0;recursiveResize=0;outlineConnect=0;portConstraint=eastwest;newEdgeStyle={&quot;curved&quot;:0,&quot;rounded&quot;:0};" parent="1" vertex="1">
                    <mxGeometry x="4965" y="1200" width="155" height="620" as="geometry"/>
                </mxCell>
                <mxCell id="541" value="click on row value" style="endArrow=classic;html=1;" parent="1" edge="1">
                    <mxGeometry relative="1" as="geometry">
                        <mxPoint x="4235" y="1280" as="sourcePoint"/>
                        <mxPoint x="4412" y="1280" as="targetPoint"/>
                    </mxGeometry>
                </mxCell>
                <mxCell id="542" value="ApplicationWindow" style="shape=umlLifeline;perimeter=lifelinePerimeter;whiteSpace=wrap;html=1;container=1;dropTarget=0;collapsible=0;recursiveResize=0;outlineConnect=0;portConstraint=eastwest;newEdgeStyle={&quot;curved&quot;:0,&quot;rounded&quot;:0};" parent="1" vertex="1">
                    <mxGeometry x="4335" y="1200" width="155" height="620" as="geometry"/>
                </mxCell>
                <mxCell id="543" value="Register Click" style="html=1;verticalAlign=bottom;startArrow=oval;startFill=1;endArrow=block;startSize=8;curved=0;rounded=0;strokeWidth=2;" parent="1" target="538" edge="1">
                    <mxGeometry width="60" relative="1" as="geometry">
                        <mxPoint x="4415" y="1290" as="sourcePoint"/>
                        <mxPoint x="4475" y="1290" as="targetPoint"/>
                    </mxGeometry>
                </mxCell>
                <mxCell id="544" value="Use Case: Edit Row" style="shape=umlFrame;whiteSpace=wrap;html=1;pointerEvents=0;width=180;height=30;" parent="1" vertex="1">
                    <mxGeometry x="4135" y="1150" width="2035" height="700" as="geometry"/>
                </mxCell>
                <mxCell id="545" value="setEditable()" style="html=1;align=left;spacingLeft=2;endArrow=block;rounded=0;edgeStyle=orthogonalEdgeStyle;curved=0;rounded=0;" parent="1" edge="1">
                    <mxGeometry relative="1" as="geometry">
                        <mxPoint x="4605" y="1300" as="sourcePoint"/>
                        <Array as="points">
                            <mxPoint x="4635" y="1330"/>
                        </Array>
                        <mxPoint x="4610" y="1330" as="targetPoint"/>
                    </mxGeometry>
                </mxCell>
                <mxCell id="546" value="" style="endArrow=classic;html=1;" parent="1" edge="1">
                    <mxGeometry relative="1" as="geometry">
                        <mxPoint x="4601.461538461539" y="1350" as="sourcePoint"/>
                        <mxPoint x="4812" y="1350" as="targetPoint"/>
                    </mxGeometry>
                </mxCell>
                <mxCell id="547" value="setClickHandler()" style="edgeLabel;resizable=0;html=1;;align=center;verticalAlign=middle;" parent="546" connectable="0" vertex="1">
                    <mxGeometry relative="1" as="geometry"/>
                </mxCell>
                <mxCell id="548" value="" style="endArrow=classic;html=1;" parent="1" edge="1">
                    <mxGeometry relative="1" as="geometry">
                        <mxPoint x="4812.130434782609" y="1370" as="sourcePoint"/>
                        <mxPoint x="5042" y="1370" as="targetPoint"/>
                    </mxGeometry>
                </mxCell>
                <mxCell id="549" value="setKeyHandler()" style="edgeLabel;resizable=0;html=1;;align=center;verticalAlign=middle;" parent="548" connectable="0" vertex="1">
                    <mxGeometry relative="1" as="geometry"/>
                </mxCell>
                <mxCell id="550" value="" style="endArrow=classic;html=1;" parent="1" edge="1">
                    <mxGeometry relative="1" as="geometry">
                        <mxPoint x="4235" y="1410" as="sourcePoint"/>
                        <mxPoint x="4412" y="1410" as="targetPoint"/>
                    </mxGeometry>
                </mxCell>
                <mxCell id="551" value="key presses" style="edgeLabel;resizable=0;html=1;;align=center;verticalAlign=middle;" parent="550" connectable="0" vertex="1">
                    <mxGeometry relative="1" as="geometry"/>
                </mxCell>
                <mxCell id="552" value="" style="endArrow=classic;html=1;" parent="1" target="538" edge="1">
                    <mxGeometry relative="1" as="geometry">
                        <mxPoint x="4408" y="1424.5" as="sourcePoint"/>
                        <mxPoint x="4585" y="1424.5" as="targetPoint"/>
                    </mxGeometry>
                </mxCell>
                <mxCell id="553" value="onKeyPress()" style="edgeLabel;resizable=0;html=1;;align=center;verticalAlign=middle;" parent="552" connectable="0" vertex="1">
                    <mxGeometry relative="1" as="geometry"/>
                </mxCell>
                <mxCell id="554" value="Build Table Design Mode View" style="html=1;align=left;spacingLeft=2;endArrow=block;rounded=0;edgeStyle=orthogonalEdgeStyle;curved=0;rounded=0;strokeWidth=2;startArrow=oval;startFill=1;" parent="1" edge="1">
                    <mxGeometry x="-0.0035" relative="1" as="geometry">
                        <mxPoint x="4605" y="1440" as="sourcePoint"/>
                        <Array as="points">
                            <mxPoint x="4635" y="1470"/>
                        </Array>
                        <mxPoint x="4610" y="1470" as="targetPoint"/>
                        <mxPoint as="offset"/>
                    </mxGeometry>
                </mxCell>
                <mxCell id="555" value="" style="endArrow=none;dashed=1;html=1;" parent="1" edge="1">
                    <mxGeometry width="50" height="50" relative="1" as="geometry">
                        <mxPoint x="4229.33" y="1740" as="sourcePoint"/>
                        <mxPoint x="4229.33" y="1270" as="targetPoint"/>
                    </mxGeometry>
                </mxCell>
                <mxCell id="556" value="" style="endArrow=classic;html=1;" parent="1" edge="1">
                    <mxGeometry relative="1" as="geometry">
                        <mxPoint x="4235" y="1500" as="sourcePoint"/>
                        <mxPoint x="4412" y="1500" as="targetPoint"/>
                    </mxGeometry>
                </mxCell>
                <mxCell id="557" value="press enter or click outside table" style="edgeLabel;resizable=0;html=1;;align=center;verticalAlign=middle;" parent="556" connectable="0" vertex="1">
                    <mxGeometry relative="1" as="geometry"/>
                </mxCell>
                <mxCell id="558" value="Register Click" style="html=1;verticalAlign=bottom;startArrow=oval;startFill=1;endArrow=block;startSize=8;curved=0;rounded=0;strokeWidth=2;" parent="1" edge="1">
                    <mxGeometry width="60" relative="1" as="geometry">
                        <mxPoint x="4415" y="1510" as="sourcePoint"/>
                        <mxPoint x="4602" y="1510" as="targetPoint"/>
                    </mxGeometry>
                </mxCell>
                <mxCell id="559" value="" style="endArrow=classic;html=1;" parent="1" target="538" edge="1">
                    <mxGeometry relative="1" as="geometry">
                        <mxPoint x="4415" y="1530" as="sourcePoint"/>
                        <mxPoint x="4609" y="1530.5" as="targetPoint"/>
                    </mxGeometry>
                </mxCell>
                <mxCell id="560" value="onKeyPress()" style="edgeLabel;resizable=0;html=1;;align=center;verticalAlign=middle;" parent="559" connectable="0" vertex="1">
                    <mxGeometry relative="1" as="geometry"/>
                </mxCell>
                <mxCell id="561" value="setEditable()" style="html=1;align=left;spacingLeft=2;endArrow=block;rounded=0;edgeStyle=orthogonalEdgeStyle;curved=0;rounded=0;" parent="1" edge="1">
                    <mxGeometry relative="1" as="geometry">
                        <mxPoint x="4605" y="1564" as="sourcePoint"/>
                        <Array as="points">
                            <mxPoint x="4635" y="1594"/>
                        </Array>
                        <mxPoint x="4610" y="1594" as="targetPoint"/>
                    </mxGeometry>
                </mxCell>
                <mxCell id="563" value="" style="endArrow=classic;html=1;" parent="1" edge="1">
                    <mxGeometry relative="1" as="geometry">
                        <mxPoint x="4605" y="1614" as="sourcePoint"/>
                        <mxPoint x="5237" y="1614" as="targetPoint"/>
                    </mxGeometry>
                </mxCell>
                <mxCell id="564" value="setState()" style="edgeLabel;resizable=0;html=1;;align=center;verticalAlign=middle;" parent="563" connectable="0" vertex="1">
                    <mxGeometry relative="1" as="geometry"/>
                </mxCell>
                <mxCell id="565" value="Build Table Design Mode View" style="html=1;align=left;spacingLeft=2;endArrow=block;rounded=0;edgeStyle=orthogonalEdgeStyle;curved=0;rounded=0;strokeWidth=2;startArrow=oval;startFill=1;" parent="1" edge="1">
                    <mxGeometry x="0.0084" relative="1" as="geometry">
                        <mxPoint x="4605" y="1690" as="sourcePoint"/>
                        <Array as="points">
                            <mxPoint x="4635" y="1720"/>
                        </Array>
                        <mxPoint x="4610" y="1720" as="targetPoint"/>
                        <mxPoint as="offset"/>
                    </mxGeometry>
                </mxCell>
                <mxCell id="569" value="Paint Aplication" style="html=1;verticalAlign=bottom;startArrow=oval;startFill=1;endArrow=open;startSize=6;endSize=8;curved=0;rounded=0;strokeWidth=2;" parent="1" edge="1">
                    <mxGeometry width="80" relative="1" as="geometry">
                        <mxPoint x="4598.13" y="1730" as="sourcePoint"/>
                        <mxPoint x="4411.666666666667" y="1730" as="targetPoint"/>
                    </mxGeometry>
                </mxCell>
                <mxCell id="676" value="TableRowsColumn" style="shape=umlLifeline;perimeter=lifelinePerimeter;whiteSpace=wrap;html=1;container=1;dropTarget=0;collapsible=0;recursiveResize=0;outlineConnect=0;portConstraint=eastwest;newEdgeStyle={&quot;curved&quot;:0,&quot;rounded&quot;:0};" parent="1" vertex="1">
                    <mxGeometry x="5160" y="1200" width="155" height="620" as="geometry"/>
                </mxCell>
                <mxCell id="677" value="Database" style="shape=umlLifeline;perimeter=lifelinePerimeter;whiteSpace=wrap;html=1;container=1;dropTarget=0;collapsible=0;recursiveResize=0;outlineConnect=0;portConstraint=eastwest;newEdgeStyle={&quot;curved&quot;:0,&quot;rounded&quot;:0};" parent="1" vertex="1">
                    <mxGeometry x="5390" y="1200" width="155" height="620" as="geometry"/>
                </mxCell>
                <mxCell id="678" value="" style="endArrow=classic;html=1;" parent="1" edge="1">
                    <mxGeometry relative="1" as="geometry">
                        <mxPoint x="5235.060434782609" y="1624" as="sourcePoint"/>
                        <mxPoint x="5464.93" y="1624" as="targetPoint"/>
                    </mxGeometry>
                </mxCell>
                <mxCell id="679" value="editCell()" style="edgeLabel;resizable=0;html=1;;align=center;verticalAlign=middle;" parent="678" connectable="0" vertex="1">
                    <mxGeometry relative="1" as="geometry"/>
                </mxCell>
                <mxCell id="680" value="Table" style="shape=umlLifeline;perimeter=lifelinePerimeter;whiteSpace=wrap;html=1;container=1;dropTarget=0;collapsible=0;recursiveResize=0;outlineConnect=0;portConstraint=eastwest;newEdgeStyle={&quot;curved&quot;:0,&quot;rounded&quot;:0};" parent="1" vertex="1">
                    <mxGeometry x="5590" y="1200" width="155" height="620" as="geometry"/>
                </mxCell>
                <mxCell id="682" value="Row" style="shape=umlLifeline;perimeter=lifelinePerimeter;whiteSpace=wrap;html=1;container=1;dropTarget=0;collapsible=0;recursiveResize=0;outlineConnect=0;portConstraint=eastwest;newEdgeStyle={&quot;curved&quot;:0,&quot;rounded&quot;:0};" parent="1" vertex="1">
                    <mxGeometry x="5790" y="1200" width="155" height="620" as="geometry"/>
                </mxCell>
                <mxCell id="685" value="" style="endArrow=classic;html=1;" parent="1" edge="1">
                    <mxGeometry relative="1" as="geometry">
                        <mxPoint x="5465.000434782609" y="1634" as="sourcePoint"/>
                        <mxPoint x="5667" y="1634" as="targetPoint"/>
                    </mxGeometry>
                </mxCell>
                <mxCell id="686" value="editCell()" style="edgeLabel;resizable=0;html=1;;align=center;verticalAlign=middle;" parent="685" connectable="0" vertex="1">
                    <mxGeometry relative="1" as="geometry"/>
                </mxCell>
                <mxCell id="687" value="" style="endArrow=classic;html=1;" parent="1" edge="1">
                    <mxGeometry relative="1" as="geometry">
                        <mxPoint x="5665.000434782609" y="1644" as="sourcePoint"/>
                        <mxPoint x="5867" y="1644" as="targetPoint"/>
                    </mxGeometry>
                </mxCell>
                <mxCell id="688" value="getCells()" style="edgeLabel;resizable=0;html=1;;align=center;verticalAlign=middle;" parent="687" connectable="0" vertex="1">
                    <mxGeometry relative="1" as="geometry"/>
                </mxCell>
                <mxCell id="689" value="Cell" style="shape=umlLifeline;perimeter=lifelinePerimeter;whiteSpace=wrap;html=1;container=1;dropTarget=0;collapsible=0;recursiveResize=0;outlineConnect=0;portConstraint=eastwest;newEdgeStyle={&quot;curved&quot;:0,&quot;rounded&quot;:0};" parent="1" vertex="1">
                    <mxGeometry x="5975" y="1200" width="155" height="620" as="geometry"/>
                </mxCell>
                <mxCell id="690" value="" style="endArrow=classic;html=1;" parent="1" edge="1">
                    <mxGeometry relative="1" as="geometry">
                        <mxPoint x="5667.163333333334" y="1664" as="sourcePoint"/>
                        <mxPoint x="6052" y="1664" as="targetPoint"/>
                    </mxGeometry>
                </mxCell>
                <mxCell id="691" value="setValue()" style="edgeLabel;resizable=0;html=1;;align=center;verticalAlign=middle;" parent="690" connectable="0" vertex="1">
                    <mxGeometry relative="1" as="geometry"/>
                </mxCell>
                <mxCell id="721" value="Actor" style="shape=umlActor;verticalLabelPosition=bottom;verticalAlign=top;html=1;" parent="1" vertex="1">
                    <mxGeometry x="4215" y="720" width="30" height="60" as="geometry"/>
                </mxCell>
                <mxCell id="722" value="CheckBox" style="shape=umlLifeline;perimeter=lifelinePerimeter;whiteSpace=wrap;html=1;container=1;dropTarget=0;collapsible=0;recursiveResize=0;outlineConnect=0;portConstraint=eastwest;newEdgeStyle={&quot;curved&quot;:0,&quot;rounded&quot;:0};" parent="1" vertex="1">
                    <mxGeometry x="4525" y="730" width="155" height="285" as="geometry"/>
                </mxCell>
                <mxCell id="723" value="TableDesignRow" style="shape=umlLifeline;perimeter=lifelinePerimeter;whiteSpace=wrap;html=1;container=1;dropTarget=0;collapsible=0;recursiveResize=0;outlineConnect=0;portConstraint=eastwest;newEdgeStyle={&quot;curved&quot;:0,&quot;rounded&quot;:0};" parent="1" vertex="1">
                    <mxGeometry x="4735" y="730" width="155" height="285" as="geometry"/>
                </mxCell>
                <mxCell id="724" value="TableRowsModeView" style="shape=umlLifeline;perimeter=lifelinePerimeter;whiteSpace=wrap;html=1;container=1;dropTarget=0;collapsible=0;recursiveResize=0;outlineConnect=0;portConstraint=eastwest;newEdgeStyle={&quot;curved&quot;:0,&quot;rounded&quot;:0};" parent="1" vertex="1">
                    <mxGeometry x="4930" y="730" width="155" height="295" as="geometry"/>
                </mxCell>
                <mxCell id="725" value="" style="endArrow=none;dashed=1;html=1;" parent="1" edge="1">
                    <mxGeometry width="50" height="50" relative="1" as="geometry">
                        <mxPoint x="4229.29" y="1025" as="sourcePoint"/>
                        <mxPoint x="4229.58" y="800" as="targetPoint"/>
                    </mxGeometry>
                </mxCell>
                <mxCell id="726" value="click on column checkbox" style="endArrow=classic;html=1;" parent="1" edge="1">
                    <mxGeometry relative="1" as="geometry">
                        <mxPoint x="4235" y="810" as="sourcePoint"/>
                        <mxPoint x="4412" y="810" as="targetPoint"/>
                    </mxGeometry>
                </mxCell>
                <mxCell id="727" value="ApplicationWindow" style="shape=umlLifeline;perimeter=lifelinePerimeter;whiteSpace=wrap;html=1;container=1;dropTarget=0;collapsible=0;recursiveResize=0;outlineConnect=0;portConstraint=eastwest;newEdgeStyle={&quot;curved&quot;:0,&quot;rounded&quot;:0};" parent="1" vertex="1">
                    <mxGeometry x="4335" y="730" width="155" height="295" as="geometry"/>
                </mxCell>
                <mxCell id="728" value="Register Click" style="html=1;verticalAlign=bottom;startArrow=oval;startFill=1;endArrow=block;startSize=8;curved=0;rounded=0;strokeWidth=2;" parent="1" target="722" edge="1">
                    <mxGeometry width="60" relative="1" as="geometry">
                        <mxPoint x="4415" y="820" as="sourcePoint"/>
                        <mxPoint x="4475" y="820" as="targetPoint"/>
                    </mxGeometry>
                </mxCell>
                <mxCell id="729" value="Use Case: Delete Row" style="shape=umlFrame;whiteSpace=wrap;html=1;pointerEvents=0;width=160;height=30;" parent="1" vertex="1">
                    <mxGeometry x="4135" y="680" width="1560" height="375" as="geometry"/>
                </mxCell>
                <mxCell id="730" value="" style="endArrow=classic;html=1;" parent="1" edge="1">
                    <mxGeometry relative="1" as="geometry">
                        <mxPoint x="4605.001538461538" y="830" as="sourcePoint"/>
                        <mxPoint x="4815.54" y="830" as="targetPoint"/>
                    </mxGeometry>
                </mxCell>
                <mxCell id="731" value="onChange()" style="edgeLabel;resizable=0;html=1;;align=center;verticalAlign=middle;" parent="730" connectable="0" vertex="1">
                    <mxGeometry relative="1" as="geometry"/>
                </mxCell>
                <mxCell id="732" value="" style="endArrow=classic;html=1;" parent="1" target="724" edge="1">
                    <mxGeometry relative="1" as="geometry">
                        <mxPoint x="4812.130434782609" y="839.29" as="sourcePoint"/>
                        <mxPoint x="5042" y="839.29" as="targetPoint"/>
                    </mxGeometry>
                </mxCell>
                <mxCell id="733" value="onSelect()" style="edgeLabel;resizable=0;html=1;;align=center;verticalAlign=middle;" parent="732" connectable="0" vertex="1">
                    <mxGeometry relative="1" as="geometry"/>
                </mxCell>
                <mxCell id="734" value="" style="endArrow=classic;html=1;" parent="1" edge="1">
                    <mxGeometry relative="1" as="geometry">
                        <mxPoint x="4230" y="870" as="sourcePoint"/>
                        <mxPoint x="4407" y="870" as="targetPoint"/>
                    </mxGeometry>
                </mxCell>
                <mxCell id="735" value="press delete" style="edgeLabel;resizable=0;html=1;;align=center;verticalAlign=middle;" parent="734" connectable="0" vertex="1">
                    <mxGeometry relative="1" as="geometry"/>
                </mxCell>
                <mxCell id="736" value="" style="endArrow=classic;html=1;" parent="1" target="724" edge="1">
                    <mxGeometry relative="1" as="geometry">
                        <mxPoint x="4410" y="880" as="sourcePoint"/>
                        <mxPoint x="4587" y="880" as="targetPoint"/>
                    </mxGeometry>
                </mxCell>
                <mxCell id="737" value="onKeyPress()" style="edgeLabel;resizable=0;html=1;;align=center;verticalAlign=middle;" parent="736" connectable="0" vertex="1">
                    <mxGeometry relative="1" as="geometry"/>
                </mxCell>
                <mxCell id="738" value="Database" style="shape=umlLifeline;perimeter=lifelinePerimeter;whiteSpace=wrap;html=1;container=1;dropTarget=0;collapsible=0;recursiveResize=0;outlineConnect=0;portConstraint=eastwest;newEdgeStyle={&quot;curved&quot;:0,&quot;rounded&quot;:0};" parent="1" vertex="1">
                    <mxGeometry x="5130" y="730" width="155" height="295" as="geometry"/>
                </mxCell>
                <mxCell id="739" value="" style="endArrow=classic;html=1;" parent="1" edge="1">
                    <mxGeometry relative="1" as="geometry">
                        <mxPoint x="5010.000434782609" y="890.29" as="sourcePoint"/>
                        <mxPoint x="5204.87" y="890" as="targetPoint"/>
                    </mxGeometry>
                </mxCell>
                <mxCell id="740" value="deleteRow()" style="edgeLabel;resizable=0;html=1;;align=center;verticalAlign=middle;" parent="739" connectable="0" vertex="1">
                    <mxGeometry relative="1" as="geometry"/>
                </mxCell>
                <mxCell id="741" value="Build Table Design Mode View" style="html=1;align=left;spacingLeft=2;endArrow=block;rounded=0;edgeStyle=orthogonalEdgeStyle;curved=0;rounded=0;strokeWidth=2;startArrow=oval;startFill=1;" parent="1" edge="1">
                    <mxGeometry x="-0.0035" relative="1" as="geometry">
                        <mxPoint x="5010" y="950" as="sourcePoint"/>
                        <Array as="points">
                            <mxPoint x="5040" y="980"/>
                        </Array>
                        <mxPoint x="5015" y="980" as="targetPoint"/>
                        <mxPoint as="offset"/>
                    </mxGeometry>
                </mxCell>
                <mxCell id="742" value="Paint Aplication" style="html=1;verticalAlign=bottom;startArrow=oval;startFill=1;endArrow=open;startSize=6;endSize=8;curved=0;rounded=0;strokeWidth=2;" parent="1" edge="1">
                    <mxGeometry width="80" relative="1" as="geometry">
                        <mxPoint x="5003.5599999999995" y="995" as="sourcePoint"/>
                        <mxPoint x="4415.001428571428" y="994.9999999999991" as="targetPoint"/>
                    </mxGeometry>
                </mxCell>
                <mxCell id="743" value="Table" style="shape=umlLifeline;perimeter=lifelinePerimeter;whiteSpace=wrap;html=1;container=1;dropTarget=0;collapsible=0;recursiveResize=0;outlineConnect=0;portConstraint=eastwest;newEdgeStyle={&quot;curved&quot;:0,&quot;rounded&quot;:0};" parent="1" vertex="1">
                    <mxGeometry x="5320" y="730" width="155" height="295" as="geometry"/>
                </mxCell>
                <mxCell id="744" value="" style="endArrow=classic;html=1;" parent="1" edge="1">
                    <mxGeometry relative="1" as="geometry">
                        <mxPoint x="5205.000434782609" y="895.29" as="sourcePoint"/>
                        <mxPoint x="5399.87" y="895" as="targetPoint"/>
                    </mxGeometry>
                </mxCell>
                <mxCell id="745" value="deleteRow()" style="edgeLabel;resizable=0;html=1;;align=center;verticalAlign=middle;" parent="744" connectable="0" vertex="1">
                    <mxGeometry relative="1" as="geometry"/>
                </mxCell>
                <mxCell id="746" value="Column" style="shape=umlLifeline;perimeter=lifelinePerimeter;whiteSpace=wrap;html=1;container=1;dropTarget=0;collapsible=0;recursiveResize=0;outlineConnect=0;portConstraint=eastwest;newEdgeStyle={&quot;curved&quot;:0,&quot;rounded&quot;:0};" parent="1" vertex="1">
                    <mxGeometry x="5505" y="730" width="155" height="295" as="geometry"/>
                </mxCell>
                <mxCell id="747" value="Loop" style="shape=umlFrame;whiteSpace=wrap;html=1;pointerEvents=0;width=48;height=15;" parent="1" vertex="1">
                    <mxGeometry x="5345" y="905" width="250" height="30" as="geometry"/>
                </mxCell>
                <mxCell id="748" value="" style="endArrow=classic;html=1;" parent="1" edge="1">
                    <mxGeometry relative="1" as="geometry">
                        <mxPoint x="5388.001428571429" y="919.289999999999" as="sourcePoint"/>
                        <mxPoint x="5575" y="919.289999999999" as="targetPoint"/>
                    </mxGeometry>
                </mxCell>
                <mxCell id="749" value="deleteCell()" style="edgeLabel;resizable=0;html=1;;align=center;verticalAlign=middle;" parent="748" connectable="0" vertex="1">
                    <mxGeometry relative="1" as="geometry"/>
                </mxCell>
                <mxCell id="751" value="&lt;b&gt;&lt;font style=&quot;font-size: 30px;&quot;&gt;Hulpschema&#39;s&lt;/font&gt;&lt;/b&gt;" style="text;html=1;align=center;verticalAlign=middle;whiteSpace=wrap;rounded=0;fontSize=20;" parent="1" vertex="1">
                    <mxGeometry x="4080" y="3520" width="210" height="90" as="geometry"/>
                </mxCell>
                <mxCell id="754" value="&lt;b&gt;&lt;font style=&quot;font-size: 30px;&quot;&gt;Table mode&lt;/font&gt;&lt;/b&gt;" style="text;html=1;align=center;verticalAlign=middle;whiteSpace=wrap;rounded=0;fontSize=20;" parent="1" vertex="1">
                    <mxGeometry x="-80" y="510" width="210" height="90" as="geometry"/>
                </mxCell>
                <mxCell id="757" value="&lt;b&gt;&lt;font style=&quot;font-size: 30px;&quot;&gt;Table design mode&lt;/font&gt;&lt;/b&gt;" style="text;html=1;align=center;verticalAlign=middle;whiteSpace=wrap;rounded=0;fontSize=20;" parent="1" vertex="1">
                    <mxGeometry x="-92.5" y="2255" width="350" height="120" as="geometry"/>
                </mxCell>
                <mxCell id="759" value="&lt;b&gt;&lt;font style=&quot;font-size: 30px;&quot;&gt;Row edit mode&lt;/font&gt;&lt;/b&gt;" style="text;html=1;align=center;verticalAlign=middle;whiteSpace=wrap;rounded=0;fontSize=20;" parent="1" vertex="1">
                    <mxGeometry x="4100" y="510" width="350" height="120" as="geometry"/>
                </mxCell>
                <mxCell id="762" value="isValid()" style="shape=umlFrame;whiteSpace=wrap;html=1;pointerEvents=0;" parent="1" vertex="1">
                    <mxGeometry x="270" y="1620" width="975" height="200" as="geometry"/>
                </mxCell>
                <mxCell id="763" value="isValid()" style="html=1;align=left;spacingLeft=2;endArrow=block;rounded=0;edgeStyle=orthogonalEdgeStyle;curved=0;rounded=0;" parent="1" edge="1">
                    <mxGeometry relative="1" as="geometry">
                        <mxPoint x="537.52" y="1574.9800000000002" as="sourcePoint"/>
                        <Array as="points">
                            <mxPoint x="567.52" y="1604.9800000000002"/>
                        </Array>
                        <mxPoint x="542.52" y="1604.9800000000002" as="targetPoint"/>
                    </mxGeometry>
                </mxCell>
                <mxCell id="765" value="True" style="text;html=1;align=center;verticalAlign=middle;whiteSpace=wrap;rounded=0;" parent="1" vertex="1">
                    <mxGeometry x="262.5" y="1660" width="60" height="30" as="geometry"/>
                </mxCell>
                <mxCell id="766" value="" style="endArrow=none;dashed=1;html=1;dashPattern=1 3;strokeWidth=2;exitX=0.004;exitY=0.575;exitDx=0;exitDy=0;exitPerimeter=0;entryX=1;entryY=0.575;entryDx=0;entryDy=0;entryPerimeter=0;" parent="1" edge="1">
                    <mxGeometry width="50" height="50" relative="1" as="geometry">
                        <mxPoint x="273.9000000000001" y="1770" as="sourcePoint"/>
                        <mxPoint x="1245" y="1770" as="targetPoint"/>
                    </mxGeometry>
                </mxCell>
                <mxCell id="767" value="False" style="text;html=1;align=center;verticalAlign=middle;whiteSpace=wrap;rounded=0;" parent="1" vertex="1">
                    <mxGeometry x="275.5" y="1780" width="60" height="30" as="geometry"/>
                </mxCell>
                <mxCell id="768" value="claim click or keypress" style="html=1;align=left;spacingLeft=2;endArrow=block;rounded=0;edgeStyle=orthogonalEdgeStyle;curved=0;rounded=0;" parent="1" edge="1">
                    <mxGeometry relative="1" as="geometry">
                        <mxPoint x="537.52" y="1780.0000000000002" as="sourcePoint"/>
                        <Array as="points">
                            <mxPoint x="567.52" y="1810.0000000000002"/>
                        </Array>
                        <mxPoint x="542.52" y="1810.0000000000002" as="targetPoint"/>
                    </mxGeometry>
                </mxCell>
                <mxCell id="774" value="" style="group" parent="1" vertex="1" connectable="0">
                    <mxGeometry x="370" y="2630" width="710" height="160" as="geometry"/>
                </mxCell>
                <mxCell id="771" value="" style="endArrow=none;dashed=1;html=1;dashPattern=1 3;strokeWidth=2;exitX=0.004;exitY=0.575;exitDx=0;exitDy=0;exitPerimeter=0;entryX=1;entryY=0.575;entryDx=0;entryDy=0;entryPerimeter=0;" parent="774" edge="1">
                    <mxGeometry width="50" height="50" relative="1" as="geometry">
                        <mxPoint x="8.238167938931364" y="120" as="sourcePoint"/>
                        <mxPoint x="710" y="120" as="targetPoint"/>
                    </mxGeometry>
                </mxCell>
                <mxCell id="773" value="" style="group" parent="774" vertex="1" connectable="0">
                    <mxGeometry width="710" height="160" as="geometry"/>
                </mxCell>
                <mxCell id="769" value="isValid()" style="shape=umlFrame;whiteSpace=wrap;html=1;pointerEvents=0;" parent="773" vertex="1">
                    <mxGeometry x="5.419847328244275" width="704.5801526717557" height="160" as="geometry"/>
                </mxCell>
                <mxCell id="770" value="True" style="text;html=1;align=center;verticalAlign=middle;whiteSpace=wrap;rounded=0;" parent="773" vertex="1">
                    <mxGeometry y="46.666666666666664" width="43.3587786259542" height="24" as="geometry"/>
                </mxCell>
                <mxCell id="772" value="False" style="text;html=1;align=center;verticalAlign=middle;whiteSpace=wrap;rounded=0;" parent="773" vertex="1">
                    <mxGeometry x="9.39440203562341" y="128" width="43.3587786259542" height="24" as="geometry"/>
                </mxCell>
                <mxCell id="775" value="claim click or keypress" style="html=1;align=left;spacingLeft=2;endArrow=block;rounded=0;edgeStyle=orthogonalEdgeStyle;curved=0;rounded=0;" parent="1" edge="1">
                    <mxGeometry relative="1" as="geometry">
                        <mxPoint x="453" y="2730.04" as="sourcePoint"/>
                        <Array as="points">
                            <mxPoint x="483" y="2760.04"/>
                        </Array>
                        <mxPoint x="458" y="2760.04" as="targetPoint"/>
                    </mxGeometry>
                </mxCell>
                <mxCell id="776" value="makeDefaultTypeValid()" style="html=1;align=left;spacingLeft=2;endArrow=block;rounded=0;edgeStyle=orthogonalEdgeStyle;curved=0;rounded=0;" parent="1" edge="1">
                    <mxGeometry relative="1" as="geometry">
                        <mxPoint x="2630" y="2720" as="sourcePoint"/>
                        <Array as="points">
                            <mxPoint x="2660" y="2750"/>
                        </Array>
                        <mxPoint x="2635" y="2750" as="targetPoint"/>
                        <mxPoint as="offset"/>
                    </mxGeometry>
                </mxCell>
                <mxCell id="520" value="" style="endArrow=classic;html=1;" parent="1" edge="1">
                    <mxGeometry relative="1" as="geometry">
                        <mxPoint x="457.5" y="4060" as="sourcePoint"/>
                        <mxPoint x="1092" y="4060" as="targetPoint"/>
                    </mxGeometry>
                </mxCell>
                <mxCell id="521" value="setState()" style="edgeLabel;resizable=0;html=1;;align=center;verticalAlign=middle;" parent="520" connectable="0" vertex="1">
                    <mxGeometry relative="1" as="geometry"/>
                </mxCell>
                <mxCell id="518" value="setEditable()" style="html=1;align=left;spacingLeft=2;endArrow=block;rounded=0;edgeStyle=orthogonalEdgeStyle;curved=0;rounded=0;" parent="1" edge="1">
                    <mxGeometry relative="1" as="geometry">
                        <mxPoint x="457.5" y="4010" as="sourcePoint"/>
                        <Array as="points">
                            <mxPoint x="487.5" y="4040"/>
                        </Array>
                        <mxPoint x="462.5" y="4040" as="targetPoint"/>
                    </mxGeometry>
                </mxCell>
                <mxCell id="528" value="" style="endArrow=classic;html=1;" parent="1" edge="1">
                    <mxGeometry relative="1" as="geometry">
                        <mxPoint x="1095.130434782609" y="4093.33" as="sourcePoint"/>
                        <mxPoint x="1302" y="4093.33" as="targetPoint"/>
                    </mxGeometry>
                </mxCell>
                <mxCell id="529" value="editDefaultColumnValue()" style="edgeLabel;resizable=0;html=1;;align=center;verticalAlign=middle;" parent="528" connectable="0" vertex="1">
                    <mxGeometry relative="1" as="geometry"/>
                </mxCell>
                <mxCell id="531" value="" style="endArrow=classic;html=1;" parent="1" edge="1">
                    <mxGeometry relative="1" as="geometry">
                        <mxPoint x="1303.130434782609" y="4135" as="sourcePoint"/>
                        <mxPoint x="1502" y="4135" as="targetPoint"/>
                    </mxGeometry>
                </mxCell>
                <mxCell id="532" value="editDefaultColumnValue()" style="edgeLabel;resizable=0;html=1;;align=center;verticalAlign=middle;" parent="531" connectable="0" vertex="1">
                    <mxGeometry relative="1" as="geometry"/>
                </mxCell>
                <mxCell id="536" value="checkVaildDefautlValue()" style="html=1;align=left;spacingLeft=2;endArrow=block;rounded=0;edgeStyle=orthogonalEdgeStyle;curved=0;rounded=0;" parent="1" edge="1">
                    <mxGeometry relative="1" as="geometry">
                        <mxPoint x="1695" y="4205" as="sourcePoint"/>
                        <Array as="points">
                            <mxPoint x="1725" y="4235"/>
                        </Array>
                        <mxPoint x="1700" y="4235" as="targetPoint"/>
                    </mxGeometry>
                </mxCell>
                <mxCell id="534" value="" style="endArrow=classic;html=1;" parent="1" edge="1">
                    <mxGeometry relative="1" as="geometry">
                        <mxPoint x="1505.0004347826089" y="4175" as="sourcePoint"/>
                        <mxPoint x="1692" y="4175" as="targetPoint"/>
                    </mxGeometry>
                </mxCell>
                <mxCell id="535" value="setDefaultValue()" style="edgeLabel;resizable=0;html=1;;align=center;verticalAlign=middle;" parent="534" connectable="0" vertex="1">
                    <mxGeometry relative="1" as="geometry"/>
                </mxCell>
                <mxCell id="784" value="" style="group" parent="1" vertex="1" connectable="0">
                    <mxGeometry x="380" y="3990" width="1480" height="300" as="geometry"/>
                </mxCell>
                <mxCell id="778" value="" style="endArrow=none;dashed=1;html=1;dashPattern=1 3;strokeWidth=2;exitX=0.004;exitY=0.575;exitDx=0;exitDy=0;exitPerimeter=0;entryX=1;entryY=0.575;entryDx=0;entryDy=0;entryPerimeter=0;" parent="784" edge="1">
                    <mxGeometry width="50" height="50" relative="1" as="geometry">
                        <mxPoint x="17.172519083969597" y="255.00000000000003" as="sourcePoint"/>
                        <mxPoint x="1480" y="255.00000000000003" as="targetPoint"/>
                    </mxGeometry>
                </mxCell>
                <mxCell id="779" value="" style="group" parent="784" vertex="1" connectable="0">
                    <mxGeometry y="1" width="1480" height="300" as="geometry"/>
                </mxCell>
                <mxCell id="780" value="isValid()" style="shape=umlFrame;whiteSpace=wrap;html=1;pointerEvents=0;" parent="779" vertex="1">
                    <mxGeometry x="11.297709923664122" width="1468.7022900763359" height="300" as="geometry"/>
                </mxCell>
                <mxCell id="781" value="True" style="text;html=1;align=center;verticalAlign=middle;whiteSpace=wrap;rounded=0;" parent="779" vertex="1">
                    <mxGeometry y="87.5" width="90.38167938931298" height="45" as="geometry"/>
                </mxCell>
                <mxCell id="782" value="False" style="text;html=1;align=center;verticalAlign=middle;whiteSpace=wrap;rounded=0;" parent="779" vertex="1">
                    <mxGeometry x="1.5826972010178118" y="257" width="90.38167938931298" height="45" as="geometry"/>
                </mxCell>
                <mxCell id="786" value="Claim click or keypress" style="html=1;align=left;spacingLeft=2;endArrow=block;rounded=0;edgeStyle=orthogonalEdgeStyle;curved=0;rounded=0;" parent="779" edge="1">
                    <mxGeometry relative="1" as="geometry">
                        <mxPoint x="70" y="264.5" as="sourcePoint"/>
                        <Array as="points">
                            <mxPoint x="100" y="294.5"/>
                        </Array>
                        <mxPoint x="75" y="294.5" as="targetPoint"/>
                    </mxGeometry>
                </mxCell>
                <mxCell id="787" value="" style="group" parent="1" vertex="1" connectable="0">
                    <mxGeometry x="2200" y="3990" width="1200" height="250" as="geometry"/>
                </mxCell>
                <mxCell id="788" value="" style="endArrow=none;dashed=1;html=1;dashPattern=1 3;strokeWidth=2;exitX=0.004;exitY=0.575;exitDx=0;exitDy=0;exitPerimeter=0;entryX=1;entryY=0.575;entryDx=0;entryDy=0;entryPerimeter=0;" parent="787" edge="1">
                    <mxGeometry width="50" height="50" relative="1" as="geometry">
                        <mxPoint x="13.92366412213751" y="212.50000000000003" as="sourcePoint"/>
                        <mxPoint x="1200" y="212.50000000000003" as="targetPoint"/>
                    </mxGeometry>
                </mxCell>
                <mxCell id="789" value="" style="group" parent="787" vertex="1" connectable="0">
                    <mxGeometry y="0.8333333333333334" width="1200" height="250" as="geometry"/>
                </mxCell>
                <mxCell id="790" value="isValid()" style="shape=umlFrame;whiteSpace=wrap;html=1;pointerEvents=0;" parent="789" vertex="1">
                    <mxGeometry x="9.160305343511451" width="1190.8396946564885" height="250" as="geometry"/>
                </mxCell>
                <mxCell id="791" value="True" style="text;html=1;align=center;verticalAlign=middle;whiteSpace=wrap;rounded=0;" parent="789" vertex="1">
                    <mxGeometry y="72.91666666666667" width="73.28244274809161" height="37.5" as="geometry"/>
                </mxCell>
                <mxCell id="792" value="False" style="text;html=1;align=center;verticalAlign=middle;whiteSpace=wrap;rounded=0;" parent="789" vertex="1">
                    <mxGeometry x="1.283268000825253" y="214.16666666666669" width="73.28244274809161" height="37.5" as="geometry"/>
                </mxCell>
                <mxCell id="793" value="Claim click or keypress" style="html=1;align=left;spacingLeft=2;endArrow=block;rounded=0;edgeStyle=orthogonalEdgeStyle;curved=0;rounded=0;" parent="789" edge="1">
                    <mxGeometry relative="1" as="geometry">
                        <mxPoint x="284.5778093883354" y="218.38666666666677" as="sourcePoint"/>
                        <Array as="points">
                            <mxPoint x="308.90213371266" y="243.38666666666677"/>
                        </Array>
                        <mxPoint x="288.6318634423899" y="243.38666666666677" as="targetPoint"/>
                    </mxGeometry>
                </mxCell>
                <mxCell id="796" value="" style="group" parent="1" vertex="1" connectable="0">
                    <mxGeometry x="4330" y="1540" width="1760" height="270" as="geometry"/>
                </mxCell>
                <mxCell id="797" value="" style="endArrow=none;dashed=1;html=1;dashPattern=1 3;strokeWidth=2;exitX=0.004;exitY=0.575;exitDx=0;exitDy=0;exitPerimeter=0;entryX=1;entryY=0.575;entryDx=0;entryDy=0;entryPerimeter=0;" parent="796" edge="1">
                    <mxGeometry width="50" height="50" relative="1" as="geometry">
                        <mxPoint x="20.42137404580168" y="215.50000000000006" as="sourcePoint"/>
                        <mxPoint x="1759.9999999999998" y="215.50000000000006" as="targetPoint"/>
                    </mxGeometry>
                </mxCell>
                <mxCell id="798" value="" style="group" parent="796" vertex="1" connectable="0">
                    <mxGeometry y="-0.09999999999999987" width="1759.9999999999998" height="270" as="geometry"/>
                </mxCell>
                <mxCell id="799" value="isValid()" style="shape=umlFrame;whiteSpace=wrap;html=1;pointerEvents=0;" parent="798" vertex="1">
                    <mxGeometry x="13.435114503816795" width="1746.564885496183" height="270" as="geometry"/>
                </mxCell>
                <mxCell id="800" value="True" style="text;html=1;align=center;verticalAlign=middle;whiteSpace=wrap;rounded=0;" parent="798" vertex="1">
                    <mxGeometry y="78.75000000000001" width="107.48091603053436" height="40.5" as="geometry"/>
                </mxCell>
                <mxCell id="801" value="False" style="text;html=1;align=center;verticalAlign=middle;whiteSpace=wrap;rounded=0;" parent="798" vertex="1">
                    <mxGeometry x="1.8821264012103711" y="222.30000000000004" width="107.48091603053436" height="40.5" as="geometry"/>
                </mxCell>
                <mxCell id="802" value="Claim click or keypress" style="html=1;align=left;spacingLeft=2;endArrow=block;rounded=0;edgeStyle=orthogonalEdgeStyle;curved=0;rounded=0;" parent="798" edge="1">
                    <mxGeometry relative="1" as="geometry">
                        <mxPoint x="273.38078710289193" y="230.85760000000013" as="sourcePoint"/>
                        <Array as="points">
                            <mxPoint x="309.05646277856795" y="257.8576000000001"/>
                        </Array>
                        <mxPoint x="279.3267330488385" y="257.8576000000001" as="targetPoint"/>
                    </mxGeometry>
                </mxCell>
                <mxCell id="803" value="Actor" style="shape=umlActor;verticalLabelPosition=bottom;verticalAlign=top;html=1;" parent="1" vertex="1">
                    <mxGeometry x="4250" y="2450" width="30" height="60" as="geometry"/>
                </mxCell>
                <mxCell id="804" value="DragHandle" style="shape=umlLifeline;perimeter=lifelinePerimeter;whiteSpace=wrap;html=1;container=1;dropTarget=0;collapsible=0;recursiveResize=0;outlineConnect=0;portConstraint=eastwest;newEdgeStyle={&quot;curved&quot;:0,&quot;rounded&quot;:0};" parent="1" vertex="1">
                    <mxGeometry x="4560" y="2460" width="155" height="285" as="geometry"/>
                </mxCell>
                <mxCell id="805" value="WindowController" style="shape=umlLifeline;perimeter=lifelinePerimeter;whiteSpace=wrap;html=1;container=1;dropTarget=0;collapsible=0;recursiveResize=0;outlineConnect=0;portConstraint=eastwest;newEdgeStyle={&quot;curved&quot;:0,&quot;rounded&quot;:0};" parent="1" vertex="1">
                    <mxGeometry x="4770" y="2460" width="155" height="285" as="geometry"/>
                </mxCell>
                <mxCell id="806" value="DragController" style="shape=umlLifeline;perimeter=lifelinePerimeter;whiteSpace=wrap;html=1;container=1;dropTarget=0;collapsible=0;recursiveResize=0;outlineConnect=0;portConstraint=eastwest;newEdgeStyle={&quot;curved&quot;:0,&quot;rounded&quot;:0};" parent="1" vertex="1">
                    <mxGeometry x="4965" y="2460" width="155" height="295" as="geometry"/>
                </mxCell>
                <mxCell id="807" value="" style="endArrow=none;dashed=1;html=1;" parent="1" edge="1">
                    <mxGeometry width="50" height="50" relative="1" as="geometry">
                        <mxPoint x="4264.29" y="2755" as="sourcePoint"/>
                        <mxPoint x="4264.58" y="2530" as="targetPoint"/>
                    </mxGeometry>
                </mxCell>
                <mxCell id="808" value="Drags window on top bar" style="endArrow=classic;html=1;" parent="1" edge="1">
                    <mxGeometry relative="1" as="geometry">
                        <mxPoint x="4270" y="2540" as="sourcePoint"/>
                        <mxPoint x="4447" y="2540" as="targetPoint"/>
                    </mxGeometry>
                </mxCell>
                <mxCell id="809" value="ApplicationWindow" style="shape=umlLifeline;perimeter=lifelinePerimeter;whiteSpace=wrap;html=1;container=1;dropTarget=0;collapsible=0;recursiveResize=0;outlineConnect=0;portConstraint=eastwest;newEdgeStyle={&quot;curved&quot;:0,&quot;rounded&quot;:0};" parent="1" vertex="1">
                    <mxGeometry x="4370" y="2460" width="155" height="295" as="geometry"/>
                </mxCell>
                <mxCell id="810" value="Register Click" style="html=1;verticalAlign=bottom;startArrow=oval;startFill=1;endArrow=block;startSize=8;curved=0;rounded=0;strokeWidth=2;" parent="1" target="804" edge="1">
                    <mxGeometry width="60" relative="1" as="geometry">
                        <mxPoint x="4450" y="2550" as="sourcePoint"/>
                        <mxPoint x="4510" y="2550" as="targetPoint"/>
                    </mxGeometry>
                </mxCell>
                <mxCell id="811" value="Use Case: Drag Window" style="shape=umlFrame;whiteSpace=wrap;html=1;pointerEvents=0;width=160;height=30;" parent="1" vertex="1">
                    <mxGeometry x="4170" y="2410" width="1560" height="375" as="geometry"/>
                </mxCell>
                <mxCell id="812" value="" style="endArrow=classic;html=1;" parent="1" edge="1">
                    <mxGeometry relative="1" as="geometry">
                        <mxPoint x="4640.001538461538" y="2560" as="sourcePoint"/>
                        <mxPoint x="4850.54" y="2560" as="targetPoint"/>
                    </mxGeometry>
                </mxCell>
                <mxCell id="813" value="move()" style="edgeLabel;resizable=0;html=1;;align=center;verticalAlign=middle;" parent="812" connectable="0" vertex="1">
                    <mxGeometry relative="1" as="geometry"/>
                </mxCell>
                <mxCell id="814" value="" style="endArrow=classic;html=1;" parent="1" target="806" edge="1">
                    <mxGeometry relative="1" as="geometry">
                        <mxPoint x="4847.130434782609" y="2569.29" as="sourcePoint"/>
                        <mxPoint x="5077" y="2569.29" as="targetPoint"/>
                    </mxGeometry>
                </mxCell>
                <mxCell id="815" value="startDragging()" style="edgeLabel;resizable=0;html=1;;align=center;verticalAlign=middle;" parent="814" connectable="0" vertex="1">
                    <mxGeometry relative="1" as="geometry"/>
                </mxCell>
                <mxCell id="816" value="" style="endArrow=classic;html=1;" parent="1" edge="1">
                    <mxGeometry relative="1" as="geometry">
                        <mxPoint x="4268" y="2690" as="sourcePoint"/>
                        <mxPoint x="4445" y="2690" as="targetPoint"/>
                    </mxGeometry>
                </mxCell>
                <mxCell id="817" value="Releases window" style="edgeLabel;resizable=0;html=1;;align=center;verticalAlign=middle;" parent="816" connectable="0" vertex="1">
                    <mxGeometry relative="1" as="geometry"/>
                </mxCell>
                <mxCell id="820" value="Context" style="shape=umlLifeline;perimeter=lifelinePerimeter;whiteSpace=wrap;html=1;container=1;dropTarget=0;collapsible=0;recursiveResize=0;outlineConnect=0;portConstraint=eastwest;newEdgeStyle={&quot;curved&quot;:0,&quot;rounded&quot;:0};" parent="1" vertex="1">
                    <mxGeometry x="5165" y="2460" width="155" height="295" as="geometry"/>
                </mxCell>
                <mxCell id="821" value="" style="endArrow=classic;html=1;" parent="1" edge="1">
                    <mxGeometry relative="1" as="geometry">
                        <mxPoint x="5045.130434782609" y="2584.7199999999993" as="sourcePoint"/>
                        <mxPoint x="5240" y="2584.4300000000003" as="targetPoint"/>
                    </mxGeometry>
                </mxCell>
                <mxCell id="822" value="getClickEventController()" style="edgeLabel;resizable=0;html=1;;align=center;verticalAlign=middle;" parent="821" connectable="0" vertex="1">
                    <mxGeometry relative="1" as="geometry"/>
                </mxCell>
                <mxCell id="825" value="ClickEventController" style="shape=umlLifeline;perimeter=lifelinePerimeter;whiteSpace=wrap;html=1;container=1;dropTarget=0;collapsible=0;recursiveResize=0;outlineConnect=0;portConstraint=eastwest;newEdgeStyle={&quot;curved&quot;:0,&quot;rounded&quot;:0};" parent="1" vertex="1">
                    <mxGeometry x="5355" y="2460" width="155" height="295" as="geometry"/>
                </mxCell>
                <mxCell id="826" value="" style="endArrow=classic;html=1;" parent="1" source="806" edge="1">
                    <mxGeometry relative="1" as="geometry">
                        <mxPoint x="5240.000434782609" y="2625.29" as="sourcePoint"/>
                        <mxPoint x="5434.87" y="2625" as="targetPoint"/>
                    </mxGeometry>
                </mxCell>
                <mxCell id="827" value="setClickHandler(this)" style="edgeLabel;resizable=0;html=1;;align=center;verticalAlign=middle;" parent="826" connectable="0" vertex="1">
                    <mxGeometry relative="1" as="geometry"/>
                </mxCell>
                <mxCell id="828" value="Column" style="shape=umlLifeline;perimeter=lifelinePerimeter;whiteSpace=wrap;html=1;container=1;dropTarget=0;collapsible=0;recursiveResize=0;outlineConnect=0;portConstraint=eastwest;newEdgeStyle={&quot;curved&quot;:0,&quot;rounded&quot;:0};" parent="1" vertex="1">
                    <mxGeometry x="5540" y="2460" width="155" height="295" as="geometry"/>
                </mxCell>
                <mxCell id="832" value="" style="endArrow=classic;html=1;" parent="1" edge="1">
                    <mxGeometry relative="1" as="geometry">
                        <mxPoint x="5240" y="2602.21" as="sourcePoint"/>
                        <mxPoint x="5040.428571428572" y="2602.21" as="targetPoint"/>
                    </mxGeometry>
                </mxCell>
                <mxCell id="833" value="ClickEventController" style="edgeLabel;resizable=0;html=1;;align=center;verticalAlign=middle;" parent="832" connectable="0" vertex="1">
                    <mxGeometry relative="1" as="geometry"/>
                </mxCell>
                <mxCell id="834" value="updateDragging()" style="html=1;align=left;spacingLeft=2;endArrow=block;rounded=0;edgeStyle=orthogonalEdgeStyle;curved=0;rounded=0;" parent="1" edge="1">
                    <mxGeometry relative="1" as="geometry">
                        <mxPoint x="4845" y="2635" as="sourcePoint"/>
                        <Array as="points">
                            <mxPoint x="4875" y="2665"/>
                        </Array>
                        <mxPoint x="4850" y="2665" as="targetPoint"/>
                    </mxGeometry>
                </mxCell>
                <mxCell id="836" value="Register Click" style="html=1;verticalAlign=bottom;startArrow=oval;startFill=1;endArrow=block;startSize=8;curved=0;rounded=0;strokeWidth=2;" parent="1" edge="1">
                    <mxGeometry width="60" relative="1" as="geometry">
                        <mxPoint x="4450" y="2700" as="sourcePoint"/>
                        <mxPoint x="5042" y="2700" as="targetPoint"/>
                    </mxGeometry>
                </mxCell>
                <mxCell id="837" value="" style="endArrow=classic;html=1;" parent="1" edge="1">
                    <mxGeometry relative="1" as="geometry">
                        <mxPoint x="5045.130434782609" y="2704.29" as="sourcePoint"/>
                        <mxPoint x="5240" y="2704" as="targetPoint"/>
                    </mxGeometry>
                </mxCell>
                <mxCell id="838" value="getClickEventController()" style="edgeLabel;resizable=0;html=1;;align=center;verticalAlign=middle;" parent="837" connectable="0" vertex="1">
                    <mxGeometry relative="1" as="geometry"/>
                </mxCell>
                <mxCell id="839" value="" style="endArrow=classic;html=1;" parent="1" edge="1">
                    <mxGeometry relative="1" as="geometry">
                        <mxPoint x="5244" y="2718.21" as="sourcePoint"/>
                        <mxPoint x="5044.428571428572" y="2718.21" as="targetPoint"/>
                    </mxGeometry>
                </mxCell>
                <mxCell id="840" value="ClickEventController" style="edgeLabel;resizable=0;html=1;;align=center;verticalAlign=middle;" parent="839" connectable="0" vertex="1">
                    <mxGeometry relative="1" as="geometry"/>
                </mxCell>
                <mxCell id="841" value="" style="endArrow=classic;html=1;" parent="1" edge="1">
                    <mxGeometry relative="1" as="geometry">
                        <mxPoint x="5042" y="2740" as="sourcePoint"/>
                        <mxPoint x="5434.87" y="2740" as="targetPoint"/>
                    </mxGeometry>
                </mxCell>
                <mxCell id="842" value="removeClickHandler(this)" style="edgeLabel;resizable=0;html=1;;align=center;verticalAlign=middle;" parent="841" connectable="0" vertex="1">
                    <mxGeometry relative="1" as="geometry"/>
                </mxCell>
                <mxCell id="843" value="Actor" style="shape=umlActor;verticalLabelPosition=bottom;verticalAlign=top;html=1;" parent="1" vertex="1">
                    <mxGeometry x="4250" y="2907.5" width="30" height="60" as="geometry"/>
                </mxCell>
                <mxCell id="844" value="Clickable" style="shape=umlLifeline;perimeter=lifelinePerimeter;whiteSpace=wrap;html=1;container=1;dropTarget=0;collapsible=0;recursiveResize=0;outlineConnect=0;portConstraint=eastwest;newEdgeStyle={&quot;curved&quot;:0,&quot;rounded&quot;:0};" parent="1" vertex="1">
                    <mxGeometry x="4560" y="2917.5" width="155" height="212.5" as="geometry"/>
                </mxCell>
                <mxCell id="845" value="WindowController" style="shape=umlLifeline;perimeter=lifelinePerimeter;whiteSpace=wrap;html=1;container=1;dropTarget=0;collapsible=0;recursiveResize=0;outlineConnect=0;portConstraint=eastwest;newEdgeStyle={&quot;curved&quot;:0,&quot;rounded&quot;:0};" parent="1" vertex="1">
                    <mxGeometry x="4770" y="2917.5" width="155" height="212.5" as="geometry"/>
                </mxCell>
                <mxCell id="847" value="" style="endArrow=none;dashed=1;html=1;" parent="1" edge="1">
                    <mxGeometry width="50" height="50" relative="1" as="geometry">
                        <mxPoint x="4264.41" y="3130" as="sourcePoint"/>
                        <mxPoint x="4264.41" y="2990" as="targetPoint"/>
                    </mxGeometry>
                </mxCell>
                <mxCell id="848" value="Click on X to close window" style="endArrow=classic;html=1;" parent="1" edge="1">
                    <mxGeometry relative="1" as="geometry">
                        <mxPoint x="4270" y="2997.5" as="sourcePoint"/>
                        <mxPoint x="4447" y="2997.5" as="targetPoint"/>
                    </mxGeometry>
                </mxCell>
                <mxCell id="849" value="ApplicationWindow" style="shape=umlLifeline;perimeter=lifelinePerimeter;whiteSpace=wrap;html=1;container=1;dropTarget=0;collapsible=0;recursiveResize=0;outlineConnect=0;portConstraint=eastwest;newEdgeStyle={&quot;curved&quot;:0,&quot;rounded&quot;:0};" parent="1" vertex="1">
                    <mxGeometry x="4370" y="2917.5" width="155" height="212.5" as="geometry"/>
                </mxCell>
                <mxCell id="850" value="Register Click" style="html=1;verticalAlign=bottom;startArrow=oval;startFill=1;endArrow=block;startSize=8;curved=0;rounded=0;strokeWidth=2;" parent="1" target="844" edge="1">
                    <mxGeometry width="60" relative="1" as="geometry">
                        <mxPoint x="4450" y="3007.5" as="sourcePoint"/>
                        <mxPoint x="4510" y="3007.5" as="targetPoint"/>
                    </mxGeometry>
                </mxCell>
                <mxCell id="851" value="Use Case: Close Window" style="shape=umlFrame;whiteSpace=wrap;html=1;pointerEvents=0;width=160;height=30;" parent="1" vertex="1">
                    <mxGeometry x="4170" y="2867.5" width="820" height="292.5" as="geometry"/>
                </mxCell>
                <mxCell id="852" value="" style="endArrow=classic;html=1;" parent="1" edge="1">
                    <mxGeometry relative="1" as="geometry">
                        <mxPoint x="4640.001538461538" y="3017.5" as="sourcePoint"/>
                        <mxPoint x="4850.54" y="3017.5" as="targetPoint"/>
                    </mxGeometry>
                </mxCell>
                <mxCell id="853" value="removeWindow()" style="edgeLabel;resizable=0;html=1;;align=center;verticalAlign=middle;" parent="852" connectable="0" vertex="1">
                    <mxGeometry relative="1" as="geometry"/>
                </mxCell>
                <mxCell id="875" value="removes window&lt;div&gt;from screen&lt;/div&gt;" style="html=1;align=left;spacingLeft=2;endArrow=block;rounded=0;edgeStyle=orthogonalEdgeStyle;curved=0;rounded=0;" parent="1" edge="1">
                    <mxGeometry relative="1" as="geometry">
                        <mxPoint x="4845" y="3039.9700000000003" as="sourcePoint"/>
                        <Array as="points">
                            <mxPoint x="4875" y="3069.9700000000003"/>
                        </Array>
                        <mxPoint x="4850" y="3069.9700000000003" as="targetPoint"/>
                    </mxGeometry>
                </mxCell>
                <mxCell id="876" value="Actor" style="shape=umlActor;verticalLabelPosition=bottom;verticalAlign=top;html=1;" parent="1" vertex="1">
                    <mxGeometry x="5950" y="2450" width="30" height="60" as="geometry"/>
                </mxCell>
                <mxCell id="877" value="DragHandle" style="shape=umlLifeline;perimeter=lifelinePerimeter;whiteSpace=wrap;html=1;container=1;dropTarget=0;collapsible=0;recursiveResize=0;outlineConnect=0;portConstraint=eastwest;newEdgeStyle={&quot;curved&quot;:0,&quot;rounded&quot;:0};" parent="1" vertex="1">
                    <mxGeometry x="6260" y="2460" width="155" height="285" as="geometry"/>
                </mxCell>
                <mxCell id="878" value="WindowController" style="shape=umlLifeline;perimeter=lifelinePerimeter;whiteSpace=wrap;html=1;container=1;dropTarget=0;collapsible=0;recursiveResize=0;outlineConnect=0;portConstraint=eastwest;newEdgeStyle={&quot;curved&quot;:0,&quot;rounded&quot;:0};" parent="1" vertex="1">
                    <mxGeometry x="6470" y="2460" width="155" height="285" as="geometry"/>
                </mxCell>
                <mxCell id="879" value="DragController" style="shape=umlLifeline;perimeter=lifelinePerimeter;whiteSpace=wrap;html=1;container=1;dropTarget=0;collapsible=0;recursiveResize=0;outlineConnect=0;portConstraint=eastwest;newEdgeStyle={&quot;curved&quot;:0,&quot;rounded&quot;:0};" parent="1" vertex="1">
                    <mxGeometry x="6665" y="2460" width="155" height="295" as="geometry"/>
                </mxCell>
                <mxCell id="880" value="" style="endArrow=none;dashed=1;html=1;" parent="1" edge="1">
                    <mxGeometry width="50" height="50" relative="1" as="geometry">
                        <mxPoint x="5964.29" y="2755" as="sourcePoint"/>
                        <mxPoint x="5964.58" y="2530" as="targetPoint"/>
                    </mxGeometry>
                </mxCell>
                <mxCell id="881" value="Drags border of window" style="endArrow=classic;html=1;" parent="1" edge="1">
                    <mxGeometry relative="1" as="geometry">
                        <mxPoint x="5970" y="2540" as="sourcePoint"/>
                        <mxPoint x="6147" y="2540" as="targetPoint"/>
                    </mxGeometry>
                </mxCell>
                <mxCell id="882" value="ApplicationWindow" style="shape=umlLifeline;perimeter=lifelinePerimeter;whiteSpace=wrap;html=1;container=1;dropTarget=0;collapsible=0;recursiveResize=0;outlineConnect=0;portConstraint=eastwest;newEdgeStyle={&quot;curved&quot;:0,&quot;rounded&quot;:0};" parent="1" vertex="1">
                    <mxGeometry x="6070" y="2460" width="155" height="295" as="geometry"/>
                </mxCell>
                <mxCell id="883" value="Register Click" style="html=1;verticalAlign=bottom;startArrow=oval;startFill=1;endArrow=block;startSize=8;curved=0;rounded=0;strokeWidth=2;" parent="1" target="877" edge="1">
                    <mxGeometry width="60" relative="1" as="geometry">
                        <mxPoint x="6150" y="2550" as="sourcePoint"/>
                        <mxPoint x="6210" y="2550" as="targetPoint"/>
                    </mxGeometry>
                </mxCell>
                <mxCell id="884" value="Use Case: Resize Window" style="shape=umlFrame;whiteSpace=wrap;html=1;pointerEvents=0;width=160;height=30;" parent="1" vertex="1">
                    <mxGeometry x="5870" y="2410" width="1560" height="375" as="geometry"/>
                </mxCell>
                <mxCell id="885" value="" style="endArrow=classic;html=1;" parent="1" edge="1">
                    <mxGeometry relative="1" as="geometry">
                        <mxPoint x="6340.001538461538" y="2560" as="sourcePoint"/>
                        <mxPoint x="6550.54" y="2560" as="targetPoint"/>
                    </mxGeometry>
                </mxCell>
                <mxCell id="886" value="resize()" style="edgeLabel;resizable=0;html=1;;align=center;verticalAlign=middle;" parent="885" connectable="0" vertex="1">
                    <mxGeometry relative="1" as="geometry"/>
                </mxCell>
                <mxCell id="887" value="" style="endArrow=classic;html=1;" parent="1" target="879" edge="1">
                    <mxGeometry relative="1" as="geometry">
                        <mxPoint x="6547.130434782609" y="2569.29" as="sourcePoint"/>
                        <mxPoint x="6777" y="2569.29" as="targetPoint"/>
                    </mxGeometry>
                </mxCell>
                <mxCell id="888" value="startDragging()" style="edgeLabel;resizable=0;html=1;;align=center;verticalAlign=middle;" parent="887" connectable="0" vertex="1">
                    <mxGeometry relative="1" as="geometry"/>
                </mxCell>
                <mxCell id="889" value="" style="endArrow=classic;html=1;" parent="1" edge="1">
                    <mxGeometry relative="1" as="geometry">
                        <mxPoint x="5968" y="2690" as="sourcePoint"/>
                        <mxPoint x="6145" y="2690" as="targetPoint"/>
                    </mxGeometry>
                </mxCell>
                <mxCell id="890" value="Releases window" style="edgeLabel;resizable=0;html=1;;align=center;verticalAlign=middle;" parent="889" connectable="0" vertex="1">
                    <mxGeometry relative="1" as="geometry"/>
                </mxCell>
                <mxCell id="891" value="Context" style="shape=umlLifeline;perimeter=lifelinePerimeter;whiteSpace=wrap;html=1;container=1;dropTarget=0;collapsible=0;recursiveResize=0;outlineConnect=0;portConstraint=eastwest;newEdgeStyle={&quot;curved&quot;:0,&quot;rounded&quot;:0};" parent="1" vertex="1">
                    <mxGeometry x="6865" y="2460" width="155" height="295" as="geometry"/>
                </mxCell>
                <mxCell id="892" value="" style="endArrow=classic;html=1;" parent="1" edge="1">
                    <mxGeometry relative="1" as="geometry">
                        <mxPoint x="6745.130434782609" y="2584.7199999999993" as="sourcePoint"/>
                        <mxPoint x="6940" y="2584.4300000000003" as="targetPoint"/>
                    </mxGeometry>
                </mxCell>
                <mxCell id="893" value="getClickEventController()" style="edgeLabel;resizable=0;html=1;;align=center;verticalAlign=middle;" parent="892" connectable="0" vertex="1">
                    <mxGeometry relative="1" as="geometry"/>
                </mxCell>
                <mxCell id="894" value="ClickEventController" style="shape=umlLifeline;perimeter=lifelinePerimeter;whiteSpace=wrap;html=1;container=1;dropTarget=0;collapsible=0;recursiveResize=0;outlineConnect=0;portConstraint=eastwest;newEdgeStyle={&quot;curved&quot;:0,&quot;rounded&quot;:0};" parent="1" vertex="1">
                    <mxGeometry x="7055" y="2460" width="155" height="295" as="geometry"/>
                </mxCell>
                <mxCell id="895" value="" style="endArrow=classic;html=1;" parent="1" source="879" edge="1">
                    <mxGeometry relative="1" as="geometry">
                        <mxPoint x="6940.000434782609" y="2625.29" as="sourcePoint"/>
                        <mxPoint x="7134.87" y="2625" as="targetPoint"/>
                    </mxGeometry>
                </mxCell>
                <mxCell id="896" value="setClickHandler(this)" style="edgeLabel;resizable=0;html=1;;align=center;verticalAlign=middle;" parent="895" connectable="0" vertex="1">
                    <mxGeometry relative="1" as="geometry"/>
                </mxCell>
                <mxCell id="897" value="Column" style="shape=umlLifeline;perimeter=lifelinePerimeter;whiteSpace=wrap;html=1;container=1;dropTarget=0;collapsible=0;recursiveResize=0;outlineConnect=0;portConstraint=eastwest;newEdgeStyle={&quot;curved&quot;:0,&quot;rounded&quot;:0};" parent="1" vertex="1">
                    <mxGeometry x="7240" y="2460" width="155" height="295" as="geometry"/>
                </mxCell>
                <mxCell id="898" value="" style="endArrow=classic;html=1;" parent="1" edge="1">
                    <mxGeometry relative="1" as="geometry">
                        <mxPoint x="6940" y="2602.21" as="sourcePoint"/>
                        <mxPoint x="6740.428571428572" y="2602.21" as="targetPoint"/>
                    </mxGeometry>
                </mxCell>
                <mxCell id="899" value="ClickEventController" style="edgeLabel;resizable=0;html=1;;align=center;verticalAlign=middle;" parent="898" connectable="0" vertex="1">
                    <mxGeometry relative="1" as="geometry"/>
                </mxCell>
                <mxCell id="900" value="updateDragging()" style="html=1;align=left;spacingLeft=2;endArrow=block;rounded=0;edgeStyle=orthogonalEdgeStyle;curved=0;rounded=0;" parent="1" edge="1">
                    <mxGeometry relative="1" as="geometry">
                        <mxPoint x="6545" y="2635" as="sourcePoint"/>
                        <Array as="points">
                            <mxPoint x="6575" y="2665"/>
                        </Array>
                        <mxPoint x="6550" y="2665" as="targetPoint"/>
                    </mxGeometry>
                </mxCell>
                <mxCell id="901" value="Register Click" style="html=1;verticalAlign=bottom;startArrow=oval;startFill=1;endArrow=block;startSize=8;curved=0;rounded=0;strokeWidth=2;" parent="1" edge="1">
                    <mxGeometry width="60" relative="1" as="geometry">
                        <mxPoint x="6150" y="2700" as="sourcePoint"/>
                        <mxPoint x="6742" y="2700" as="targetPoint"/>
                    </mxGeometry>
                </mxCell>
                <mxCell id="902" value="" style="endArrow=classic;html=1;" parent="1" edge="1">
                    <mxGeometry relative="1" as="geometry">
                        <mxPoint x="6745.130434782609" y="2704.29" as="sourcePoint"/>
                        <mxPoint x="6940" y="2704" as="targetPoint"/>
                    </mxGeometry>
                </mxCell>
                <mxCell id="903" value="getClickEventController()" style="edgeLabel;resizable=0;html=1;;align=center;verticalAlign=middle;" parent="902" connectable="0" vertex="1">
                    <mxGeometry relative="1" as="geometry"/>
                </mxCell>
                <mxCell id="904" value="" style="endArrow=classic;html=1;" parent="1" edge="1">
                    <mxGeometry relative="1" as="geometry">
                        <mxPoint x="6944" y="2718.21" as="sourcePoint"/>
                        <mxPoint x="6744.428571428572" y="2718.21" as="targetPoint"/>
                    </mxGeometry>
                </mxCell>
                <mxCell id="905" value="ClickEventController" style="edgeLabel;resizable=0;html=1;;align=center;verticalAlign=middle;" parent="904" connectable="0" vertex="1">
                    <mxGeometry relative="1" as="geometry"/>
                </mxCell>
                <mxCell id="906" value="" style="endArrow=classic;html=1;" parent="1" edge="1">
                    <mxGeometry relative="1" as="geometry">
                        <mxPoint x="6742" y="2740" as="sourcePoint"/>
                        <mxPoint x="7134.87" y="2740" as="targetPoint"/>
                    </mxGeometry>
                </mxCell>
                <mxCell id="907" value="removeClickHandler(this)" style="edgeLabel;resizable=0;html=1;;align=center;verticalAlign=middle;" parent="906" connectable="0" vertex="1">
                    <mxGeometry relative="1" as="geometry"/>
                </mxCell>
                <mxCell id="909" value="&lt;b&gt;&lt;font style=&quot;font-size: 30px;&quot;&gt;Windows&lt;/font&gt;&lt;/b&gt;" style="text;html=1;align=center;verticalAlign=middle;whiteSpace=wrap;rounded=0;fontSize=20;" vertex="1" parent="1">
                    <mxGeometry x="4090" y="2275" width="210" height="90" as="geometry"/>
                </mxCell>
            </root>
        </mxGraphModel>
    </diagram>
</mxfile>